<svg width="24.000000" height="24.000000" viewBox="0 0 24 24" fill="none" xmlns="http://www.w3.org/2000/svg" xmlns:xlink="http://www.w3.org/1999/xlink">
	<desc>
			Created with Pixso.
	</desc>
	<defs>
		<clipPath id="clip177_2196">
			<rect id="Icon / Line / About Us" width="24.000000" height="24.000000" fill="white" fill-opacity="0"/>
		</clipPath>
	</defs>
	<rect id="Icon / Line / About Us" width="24.000000" height="24.000000" fill="#000000" fill-opacity="0"/>
	<g clip-path="url(#clip177_2196)">
		<path id="Vector" d="M12 2.00024C17.5229 2.00024 22 6.47778 22 12.0002C22 17.5227 17.5229 22.0002 12 22.0002C6.47803 22.0002 2 17.5225 2 12.0002C2 6.47803 6.47803 2.00024 12 2.00024ZM12 3.50024C7.30615 3.50024 3.5 7.3064 3.5 12.0002C3.5 16.6941 7.30615 20.5002 12 20.5002C16.6943 20.5002 20.5 16.6943 20.5 12.0002C20.5 7.30615 16.6943 3.50024 12 3.50024ZM12.0049 15.0461C12.4194 15.0461 12.7549 15.3818 12.7549 15.7961C12.7549 16.1758 12.4731 16.4897 12.1069 16.5393L11.9951 16.5461C11.5811 16.5461 11.2451 16.2104 11.2451 15.7961C11.2451 15.4165 11.5273 15.1025 11.8936 15.053L12.0049 15.0461ZM11.9951 7.45435C12.375 7.45435 12.6885 7.73657 12.7383 8.10254L12.7451 8.20435L12.7451 12.6233C12.7451 13.0376 12.4092 13.3733 11.9951 13.3733C11.6152 13.3733 11.3018 13.0913 11.252 12.7251L11.2451 12.6233L11.2451 8.20435C11.2451 7.79004 11.5811 7.45435 11.9951 7.45435Z" fill="#3B5162" fill-opacity="1.000000" fill-rule="nonzero"/>
	</g>
</svg>
