<svg width="24.000000" height="24.000000" viewBox="0 0 24 24" fill="none" xmlns="http://www.w3.org/2000/svg" xmlns:xlink="http://www.w3.org/1999/xlink">
	<desc>
			Created with Pixso.
	</desc>
	<defs>
		<clipPath id="clip177_1781">
			<rect id="Icon / Line / Appereance" width="24.000000" height="24.000000" fill="white" fill-opacity="0"/>
		</clipPath>
	</defs>
	<g clip-path="url(#clip177_1781)">
		<path id="Vector" d="M6.48291 2.81519C8.24023 2.25 10.1421 2.45337 11.7329 3.3562L11.9966 3.5144L12.2646 3.35547C13.7729 2.50122 15.5625 2.27319 17.2461 2.73633L17.5122 2.81543C21.1846 3.9978 22.8291 8.00806 21.5938 11.8452C20.9741 13.6301 19.9585 15.2485 18.6172 16.5823C16.7925 18.3545 14.7812 19.9194 12.6216 21.2473L12.3926 21.3896C12.1597 21.5344 11.8657 21.5369 11.6304 21.3962L11.3848 21.249C9.22266 19.9194 7.21094 18.3545 5.37988 16.5762C4.04541 15.2485 3.0293 13.6301 2.40479 11.8296C1.17383 8.00562 2.81152 3.99731 6.48291 2.81519ZM11.3745 4.85425C10.0708 3.96289 8.43311 3.72339 6.93164 4.20654C4.0874 5.12207 2.79785 8.27808 3.79199 11.3665C4.33887 12.9417 5.23486 14.3696 6.40576 15.5344C8.15381 17.2319 10.0806 18.731 12.144 19.9998L12.0015 19.9099L12.4692 19.6155C14.1025 18.561 15.6411 17.3643 17.0635 16.042L17.5918 15.5405C18.7686 14.3696 19.665 12.9417 20.2065 11.3821C21.2046 8.28101 19.9097 5.1228 17.064 4.20679C15.4873 3.70093 13.7661 3.99048 12.436 4.98633C12.1807 5.17749 11.8306 5.18115 11.5713 4.99536L11.3745 4.85425ZM15.8701 6.48364C17.1919 6.90552 18.1289 8.08862 18.2456 9.47852C18.2798 9.88062 17.9805 10.2341 17.5781 10.2678C17.1758 10.3018 16.8218 10.0032 16.7881 9.60107C16.7207 8.7981 16.1816 8.11743 15.4253 7.87598C15.0405 7.75317 14.8281 7.34204 14.9512 6.95752C15.0737 6.573 15.4854 6.36084 15.8701 6.48364Z" fill="#3B5162" fill-opacity="1.000000" fill-rule="nonzero"/>
	</g>
</svg>
