<svg width="24.000000" height="24.000000" viewBox="0 0 24 24" fill="none" xmlns="http://www.w3.org/2000/svg" xmlns:xlink="http://www.w3.org/1999/xlink">
	<desc>
			Created with Pixso.
	</desc>
	<defs>
		<clipPath id="clip190_1364">
			<rect id="Icon / Line / Arrow - Down" width="24.000000" height="24.000000" fill="white" fill-opacity="0"/>
		</clipPath>
	</defs>
	<rect id="Icon / Line / Arrow - Down" width="24.000000" height="24.000000" fill="#000000" fill-opacity="0"/>
	<g clip-path="url(#clip190_1364)">
		<path id="Vector" d="M12 3C12.4204 3 12.7681 3.30786 12.8228 3.70728L12.8306 3.81812L12.8301 18.2009L18.0811 13.0046C18.4048 12.6846 18.9307 12.6833 19.2554 13.0022C19.5508 13.292 19.5786 13.7466 19.3384 14.0674L19.2583 14.1594L12.5889 20.7593L12.5713 20.7754C12.5537 20.7922 12.5347 20.8083 12.5156 20.8235L12.5889 20.7593C12.5566 20.791 12.5225 20.8198 12.4868 20.8452C12.4644 20.8606 12.4414 20.8757 12.417 20.8894C12.3638 20.9207 12.3076 20.9448 12.25 20.9626C12.2295 20.9688 12.209 20.9741 12.188 20.979C12.1719 20.9829 12.1553 20.9861 12.1392 20.9888C12.1211 20.9915 12.1035 20.9939 12.0854 20.9956C12.0674 20.9978 12.0488 20.999 12.0308 20.9998C12.0205 20.9998 12.0103 21 12 21L11.9727 20.9998C11.9521 20.999 11.9316 20.9976 11.9111 20.9956L12 21C11.9526 21 11.9062 20.9961 11.8608 20.9885C11.8403 20.9851 11.8198 20.981 11.7993 20.9758C11.7827 20.9719 11.7666 20.9675 11.751 20.9624C11.7319 20.9568 11.7134 20.9502 11.6943 20.9429C11.6753 20.9353 11.6562 20.927 11.6377 20.9182C11.6235 20.9114 11.6089 20.9041 11.5947 20.896C11.5674 20.8809 11.542 20.865 11.5176 20.8479C11.5137 20.8452 11.5098 20.842 11.5054 20.8391C11.4683 20.8118 11.4355 20.7834 11.4053 20.7529L4.74219 14.1594C4.41846 13.8391 4.41943 13.321 4.74463 13.0022C5.04004 12.7124 5.50098 12.687 5.82568 12.9253L5.91846 13.0046L11.1689 18.2L11.1699 3.81812C11.1699 3.36621 11.5415 3 12 3Z" fill="#3B5162" fill-opacity="1.000000" fill-rule="nonzero"/>
	</g>
</svg>
