<svg width="24.000000" height="24.000000" viewBox="0 0 24 24" fill="none" xmlns="http://www.w3.org/2000/svg" xmlns:xlink="http://www.w3.org/1999/xlink">
	<desc>
			Created with Pixso.
	</desc>
	<defs>
		<clipPath id="clip190_1231">
			<rect id="Icon / Line / Arrow - Up" width="24.000000" height="24.000000" fill="white" fill-opacity="0"/>
		</clipPath>
	</defs>
	<rect id="Icon / Line / Arrow - Up" width="24.000000" height="24.000000" fill="#000000" fill-opacity="0"/>
	<g clip-path="url(#clip190_1231)">
		<path id="Vector" d="M12 21C11.5796 21 11.2319 20.6921 11.1772 20.2927L11.1694 20.1819L11.1699 5.79907L5.91895 10.9954C5.59521 11.3154 5.06934 11.3167 4.74463 10.9978C4.44922 10.708 4.42139 10.2534 4.66162 9.93262L4.7417 9.84058L11.4111 3.24072L11.4287 3.22461C11.4463 3.20776 11.4653 3.19165 11.4844 3.17651L11.4111 3.24072C11.4434 3.20898 11.4775 3.18018 11.5132 3.15479C11.5356 3.1394 11.5586 3.12427 11.583 3.1106C11.6362 3.07935 11.6924 3.05518 11.75 3.03735C11.7705 3.03125 11.791 3.02588 11.812 3.021C11.8281 3.01709 11.8447 3.01392 11.8608 3.01123C11.8789 3.00854 11.8965 3.0061 11.9146 3.00439C11.9326 3.0022 11.9512 3.00098 11.9692 3.00024C11.9795 3.00024 11.9897 3 12 3L12.0273 3.00024C12.0479 3.00098 12.0684 3.00244 12.0889 3.00439L12 3C12.0474 3 12.0938 3.00391 12.1392 3.01147C12.1597 3.01489 12.1802 3.01904 12.2007 3.02417C12.2173 3.02808 12.2334 3.03247 12.249 3.0376C12.2681 3.04321 12.2866 3.0498 12.3057 3.05713C12.3247 3.0647 12.3438 3.073 12.3623 3.08179C12.3765 3.08862 12.3911 3.09595 12.4053 3.104C12.4326 3.11914 12.458 3.13501 12.4824 3.1521C12.4863 3.15479 12.4902 3.15796 12.4946 3.16089C12.5317 3.18823 12.5645 3.21655 12.5947 3.24707L19.2578 9.84058C19.5815 10.1609 19.5806 10.679 19.2554 10.9978C18.96 11.2876 18.499 11.313 18.1743 11.0747L18.0815 10.9954L12.8311 5.80005L12.8301 20.1819C12.8301 20.6338 12.4585 21 12 21Z" fill="#3B5162" fill-opacity="1.000000" fill-rule="nonzero"/>
	</g>
</svg>
