<svg width="24.000000" height="24.000000" viewBox="0 0 24 24" fill="none" xmlns="http://www.w3.org/2000/svg" xmlns:xlink="http://www.w3.org/1999/xlink">
	<desc>
			Created with Pixso.
	</desc>
	<defs/>
	<rect id="Icon / Line / Card" width="24.000000" height="24.000000" fill="#FFFFFF" fill-opacity="0"/>
	<path id="Subtract" d="M19.0283 4.36108Q18.5264 4.25 18 4.25L6 4.25Q5.47363 4.25 4.97119 4.36108Q4.55273 4.45361 4.15088 4.62354Q3.74658 4.79443 3.38672 5.03198Q2.98682 5.29565 2.64111 5.64136Q2.29541 5.98682 2.03223 6.38647Q1.79443 6.74683 1.62354 7.15088Q1.45361 7.55249 1.36084 7.97144Q1.25 8.47339 1.25 9L1.25 15Q1.25 15.5266 1.36084 16.0286Q1.45361 16.4475 1.62354 16.8491Q1.79443 17.2534 2.03223 17.6135Q2.2959 18.0132 2.64111 18.3586Q2.98682 18.7043 3.38672 18.968Q3.74658 19.2056 4.15088 19.3765Q4.55273 19.5464 4.97119 19.6389Q5.47363 19.75 6 19.75L18 19.75Q18.5264 19.75 19.0283 19.6389Q19.4473 19.5464 19.8491 19.3765Q20.2534 19.2056 20.6133 18.968Q21.0132 18.7043 21.3589 18.3586Q21.7041 18.0132 21.9678 17.6135Q22.2056 17.2534 22.3765 16.8491Q22.5464 16.4475 22.6392 16.0286Q22.75 15.5266 22.75 15L22.75 9Q22.75 8.47339 22.6392 7.97119Q22.5464 7.55249 22.3765 7.15088Q22.2056 6.74683 21.9678 6.38672Q21.7046 5.98682 21.3589 5.64136Q21.0132 5.29565 20.6133 5.03198Q20.2534 4.79443 19.8491 4.62354Q19.4473 4.45361 19.0283 4.36108ZM6 5.75L18 5.75Q18.3745 5.75 18.7305 5.83179Q19.0029 5.89429 19.2646 6.00513Q19.5342 6.11914 19.7754 6.27637Q20.0557 6.45972 20.2979 6.7019Q20.5405 6.94409 20.7236 7.22485Q20.8809 7.46582 20.9951 7.73511Q21.1016 7.98755 21.1636 8.25L2.83643 8.25Q2.89844 7.98755 3.00488 7.73511Q3.11914 7.46582 3.27637 7.22461Q3.45996 6.94409 3.70166 6.7019Q3.94385 6.45972 4.22461 6.27637Q4.46582 6.11914 4.73535 6.00513Q4.99707 5.89429 5.26953 5.83179Q5.62549 5.75 6 5.75ZM2.75 9.75L2.75 15Q2.75 15.3745 2.83154 15.7302Q2.89453 16.0032 3.00488 16.2649Q3.11914 16.5342 3.27637 16.7754Q3.45996 17.0559 3.70166 17.2981Q3.94385 17.5403 4.22461 17.7236Q4.46582 17.8809 4.73535 17.9949Q4.99707 18.1057 5.26953 18.1682Q5.62549 18.25 6 18.25L18 18.25Q18.3745 18.25 18.7305 18.1682Q19.0029 18.1057 19.2646 17.9949Q19.5342 17.8809 19.7754 17.7236Q20.0557 17.5403 20.2979 17.2981Q20.54 17.0559 20.7236 16.7754Q20.8809 16.5342 20.9951 16.2649Q21.1055 16.0029 21.1685 15.7302Q21.25 15.3745 21.25 15L21.25 9.75L2.75 9.75ZM14 14.25L18 14.25C18.4199 14.25 18.75 14.5801 18.75 15C18.75 15.4199 18.4199 15.75 18 15.75L14 15.75C13.5801 15.75 13.25 15.4199 13.25 15C13.25 14.5801 13.5801 14.25 14 14.25Z" clip-rule="evenodd" fill="#3B5162" fill-opacity="1.000000" fill-rule="evenodd"/>
</svg>
