<svg width="24.000000" height="24.000000" viewBox="0 0 24 24" fill="none" xmlns="http://www.w3.org/2000/svg" xmlns:xlink="http://www.w3.org/1999/xlink">
	<desc>
			Created with Pixso.
	</desc>
	<defs/>
	<rect id="Icon / Line / Coin" width="24.000000" height="24.000000" fill="#FFFFFF" fill-opacity="0"/>
	<circle id="Ellipse" cx="12.000000" cy="12.000000" r="9.000000" stroke="#3B5162" stroke-opacity="1.000000" stroke-width="1.800000"/>
	<path id="$" d="M10.459 9.94116C10.459 9.34692 10.916 8.97485 11.5361 8.90308L11.5361 10.9988C11.4712 10.9856 11.4121 10.9661 11.3535 10.9465C10.7593 10.7507 10.459 10.4111 10.459 9.94116ZM13.7231 14.0149C13.7231 14.6548 13.2339 15.0791 12.5415 15.1379L12.5415 12.8855C12.5874 12.8987 12.6328 12.9116 12.6724 12.9182C13.4033 13.1206 13.7231 13.4797 13.7231 14.0149ZM12.5547 17.3772L12.5483 16.5481C14.3369 16.3784 15.4731 15.3926 15.4731 13.8386C15.4731 12.2588 14.4087 11.5928 13.0967 11.3123L12.5415 11.1946L12.5415 8.91602C13.2339 9.0271 13.6187 9.54932 13.6387 10.0718L15.3096 10.0718C15.2837 8.71362 14.2197 7.68213 12.5679 7.50586L12.5679 6.65723L11.5103 6.65723L11.5103 7.49951C9.93018 7.64307 8.68994 8.51147 8.68994 10.0781C8.68994 11.5603 9.76025 12.3176 10.9746 12.5852L11.5361 12.7092L11.5361 15.1379C10.7007 15.0269 10.2632 14.5242 10.2305 13.9236L8.52002 13.9236C8.5332 15.1313 9.34277 16.4045 11.5034 16.561L11.4971 17.3772L12.5547 17.3772Z" fill="#3B5162" fill-opacity="1.000000" fill-rule="nonzero"/>
</svg>
