<svg width="24.000000" height="24.000000" viewBox="0 0 24 24" fill="none" xmlns="http://www.w3.org/2000/svg" xmlns:xlink="http://www.w3.org/1999/xlink">
	<desc>
			Created with Pixso.
	</desc>
	<defs>
		<clipPath id="clip190_1395">
			<rect id="Icon / Line / Customer" width="24.000000" height="24.000000" fill="white" fill-opacity="0"/>
		</clipPath>
	</defs>
	<rect id="Icon / Line / Customer" width="24.000000" height="24.000000" fill="#000000" fill-opacity="0"/>
	<g clip-path="url(#clip190_1395)">
		<path id="Vector" d="M9.59131 14.4563L9.91113 14.4575C14.5557 14.498 17.1836 15.436 17.1836 17.9983C17.1836 20.5061 14.665 21.4736 10.2236 21.5547L9.59131 21.5603C4.74707 21.5603 2.00049 20.6394 2.00049 18.0183C2.00049 15.3938 4.7583 14.4563 9.59131 14.4563ZM9.59131 15.9563C5.57422 15.9563 3.50049 16.6611 3.50049 18.0183C3.50049 19.3667 5.56934 20.0603 9.59131 20.0603C13.6089 20.0603 15.6836 19.3552 15.6836 17.9983C15.6836 16.6506 13.6128 15.9563 9.59131 15.9563ZM17.5874 13.748C18.168 13.7876 18.7451 13.8708 19.2998 13.9937C20.4878 14.23 21.3711 14.6711 21.7759 15.5205C22.0747 16.1492 22.0747 16.8806 21.7759 17.5093C21.373 18.3562 20.499 18.7942 19.3042 19.04C18.8984 19.1235 18.502 18.8621 18.4185 18.4565C18.3354 18.0508 18.5967 17.6543 19.002 17.5708C19.771 17.4126 20.2827 17.1562 20.4209 16.8655C20.5259 16.644 20.5259 16.3855 20.4214 16.165C20.2822 15.8733 19.7676 15.6162 18.9912 15.4617C18.4937 15.3516 17.9907 15.2791 17.4854 15.2446C17.0723 15.2166 16.7598 14.8586 16.7881 14.4456C16.8159 14.0322 17.1738 13.72 17.5874 13.748ZM9.59131 2.49976C12.4395 2.49976 14.7266 4.78638 14.7266 7.63379C14.7266 10.4819 12.4399 12.7688 9.59131 12.7688C6.74365 12.7688 4.45752 10.4822 4.45752 7.63379C4.45752 4.78613 6.74365 2.49976 9.59131 2.49976ZM16.02 3.56934C18.2549 3.56934 20.0674 5.38184 20.0674 7.61646C20.0674 9.85156 18.2554 11.6633 16.02 11.6633C15.606 11.6633 15.27 11.3276 15.27 10.9133C15.27 10.499 15.606 10.1633 16.02 10.1633C17.4268 10.1633 18.5674 9.02319 18.5674 7.61646C18.5674 6.21021 17.4268 5.06934 16.02 5.06934C15.606 5.06934 15.27 4.73364 15.27 4.31934C15.27 3.90503 15.606 3.56934 16.02 3.56934ZM9.59131 3.99976C7.57227 3.99976 5.95752 5.6145 5.95752 7.63379C5.95752 9.65381 7.57178 11.2688 9.59131 11.2688C11.6113 11.2688 13.2266 9.65356 13.2266 7.63379C13.2266 5.61475 11.6113 3.99976 9.59131 3.99976Z" fill="#3B5162" fill-opacity="1.000000" fill-rule="nonzero"/>
	</g>
</svg>
