<svg width="24.000000" height="24.000000" viewBox="0 0 24 24" fill="none" xmlns="http://www.w3.org/2000/svg" xmlns:xlink="http://www.w3.org/1999/xlink">
	<desc>
			Created with Pixso.
	</desc>
	<defs>
		<clipPath id="clip175_857">
			<rect id="Icon / Line / Dashboard" width="24.000000" height="24.000000" fill="white" fill-opacity="0"/>
		</clipPath>
	</defs>
	<rect id="Icon / Line / Dashboard" width="24.000000" height="24.000000" fill="#000000" fill-opacity="0"/>
	<g clip-path="url(#clip175_857)">
		<path id="Vector" d="M10.4976 6.7605C10.5854 6.93481 10.6382 7.12402 10.6533 7.32104L11.042 12.8096C11.0469 12.8848 11.0825 12.9548 11.1406 13.0042C11.1846 13.0413 11.2383 13.0645 11.2979 13.0713L11.3599 13.0723L16.9341 12.7366C17.3867 12.71 17.8306 12.8674 18.1602 13.1719C18.4902 13.4763 18.6768 13.9004 18.6743 14.3911C18.4268 18.0037 15.7729 21.0237 12.1592 21.8064C8.54492 22.5894 4.83594 20.9475 3.05762 17.7849C2.58252 16.9695 2.26172 16.0779 2.11377 15.1748L2.06641 14.8359C2.02539 14.582 2.00342 14.3257 2 14.0796L2.00293 13.8372C2.01318 10.0654 4.66162 6.80396 8.38818 5.92432L8.64404 5.86816L8.78125 5.84521C9.50195 5.74683 10.2109 6.12451 10.4976 6.7605ZM9.0166 7.27808L8.93213 7.2876L8.70361 7.33936C5.73535 8.05469 3.60645 10.6104 3.48779 13.6211L3.48291 13.8662C3.47559 14.0525 3.48242 14.2393 3.50488 14.4377L3.53271 14.6409C3.63232 15.4951 3.90771 16.3206 4.34912 17.0771C5.81641 19.6863 8.8667 21.0366 11.8389 20.3928C14.8115 19.749 16.9937 17.2654 17.1958 14.3413C17.1958 14.2974 17.1772 14.2551 17.1445 14.2251C17.1226 14.2048 17.0957 14.1912 17.0674 14.1851L17.0239 14.1816L11.459 14.5168C10.9893 14.5503 10.5254 14.3992 10.1699 14.0972C9.81445 13.7952 9.59668 13.3669 9.56543 12.9099L9.17725 7.42627C9.17627 7.41699 9.17383 7.4082 9.15674 7.37305C9.13135 7.31689 9.07666 7.28125 9.0166 7.27808ZM13.4229 2.00098C17.7085 2.12231 21.3027 5.20166 21.9902 9.34082L22 9.45679L21.9976 9.65845C21.9736 9.9563 21.854 10.2393 21.6543 10.4668C21.4043 10.7524 21.0479 10.9287 20.6587 10.9568L14.0132 11.3901C13.1616 11.4382 12.4297 10.8052 12.374 9.97339L11.9297 3.44922L11.9351 3.30298L11.957 3.13818C12.0161 2.84619 12.1685 2.57935 12.3926 2.37646C12.6738 2.12158 13.0474 1.98657 13.4229 2.00098ZM13.4111 3.44897L13.8511 9.87817C13.8535 9.91724 13.8882 9.94678 13.9214 9.94507L20.5181 9.51343L20.4854 9.3335C19.8315 6.08008 17.0117 3.66431 13.6289 3.45923L13.4111 3.44897Z" fill="#3B5162" fill-opacity="1.000000" fill-rule="nonzero"/>
	</g>
</svg>
