<svg width="24.000000" height="24.000000" viewBox="0 0 24 24" fill="none" xmlns="http://www.w3.org/2000/svg" xmlns:xlink="http://www.w3.org/1999/xlink">
	<desc>
			Created with Pixso.
	</desc>
	<defs>
		<clipPath id="clip175_862">
			<rect id="Icon / Line / Discount" width="24.000000" height="24.000000" fill="white" fill-opacity="0"/>
		</clipPath>
	</defs>
	<rect id="Icon / Line / Discount" width="24.000000" height="24.000000" fill="#000000" fill-opacity="0"/>
	<g clip-path="url(#clip175_862)">
		<path id="Vector" d="M13.9512 2.71655L14.1333 2.88647L14.8521 3.60522C15.0991 3.85083 15.4229 4.00244 15.7671 4.03638L15.916 4.0437L16.9438 4.0437C18.5479 4.0437 19.8594 5.29785 19.9507 6.87891L19.9561 7.05566L19.9561 8.08276C19.9561 8.43262 20.0767 8.7688 20.2944 9.03613L20.3936 9.14648L21.1123 9.86523C22.2437 10.9917 22.2944 12.793 21.2573 13.98L21.1221 14.125L20.394 14.8535C20.1489 15.0991 19.9976 15.4231 19.9634 15.7673L19.9561 15.9158L19.9561 16.9448C19.9561 18.5486 18.7017 19.8591 17.1211 19.9507L16.9438 19.9558L15.916 19.9558C15.5674 19.9558 15.231 20.0769 14.9634 20.2952L14.853 20.3945L14.1353 21.1113C13.0098 22.2441 11.2075 22.2944 10.02 21.2573L9.86572 21.113L9.14844 20.396C8.8999 20.1494 8.57568 19.9973 8.23242 19.9631L8.08398 19.9558L7.05518 19.9558C5.45166 19.9558 4.14062 18.7024 4.04932 17.1216L4.04395 16.9448L4.04395 15.9158C4.04395 15.5679 3.92285 15.2307 3.70459 14.9636L3.60547 14.8538L2.88818 14.1355C1.75537 13.0095 1.70557 11.2068 2.74219 10.0205L2.87744 9.87549L3.604 9.14844C3.85059 8.89966 4.00244 8.57593 4.03662 8.23145L4.04395 8.08276L4.04395 7.05566L4.04932 6.87891C4.13721 5.35669 5.35645 4.13721 6.87793 4.04883L7.05518 4.0437L8.08398 4.0437C8.43262 4.0437 8.76904 3.92285 9.03613 3.70581L9.14648 3.60693L9.86426 2.8877C10.9907 1.7561 12.7935 1.7063 13.9512 2.71655ZM11.0415 3.84253L10.9268 3.94678L10.2056 4.66895C9.68799 5.18262 9.00391 5.48975 8.28174 5.53735L8.08398 5.5437L7.05518 5.5437C6.26758 5.5437 5.61963 6.14795 5.55029 6.91821L5.54395 7.05566L5.54395 8.08276C5.54395 8.81201 5.2793 9.51318 4.80225 10.0613L4.6665 10.2068L3.93945 10.9348C3.3877 11.4893 3.35547 12.365 3.84326 12.959L3.94775 13.0737L4.66699 13.7942C5.18115 14.3098 5.48975 14.9951 5.5376 15.7178L5.54395 15.9158L5.54395 16.9448C5.54395 17.7329 6.14746 18.3801 6.91748 18.4497L7.05518 18.4558L8.08398 18.4558C8.81201 18.4558 9.51367 18.7207 10.0615 19.198L10.2075 19.3335L10.9307 20.0569C11.4888 20.6118 12.3647 20.6443 12.9585 20.1565L13.0732 20.052L13.7939 19.3323C14.3105 18.8179 14.9951 18.51 15.7178 18.4624L15.916 18.4558L16.9438 18.4558C17.7329 18.4558 18.3804 17.8523 18.4497 17.0823L18.4561 16.9448L18.4561 15.9158C18.4561 15.187 18.7207 14.4839 19.1973 13.9382L19.3325 13.7935L20.0601 13.0659C20.6118 12.511 20.644 11.6357 20.1567 11.042L20.0527 10.927L19.3306 10.2053C18.8169 9.68774 18.5103 9.00415 18.4624 8.28101L18.4561 8.08276L18.4561 7.05566C18.4561 6.26733 17.8521 5.61963 17.0815 5.55005L16.9438 5.5437L15.916 5.5437C15.187 5.5437 14.4849 5.2793 13.938 4.80249L13.7925 4.66699L13.1045 3.97729L13.0649 3.94043C12.5107 3.38843 11.6348 3.3562 11.0415 3.84253ZM15.0962 14.0425C15.1665 14.1123 15.2266 14.1924 15.2666 14.2825C15.2964 14.3723 15.3164 14.4724 15.3164 14.5723C15.3164 14.6733 15.2964 14.7625 15.2666 14.8523C15.2266 14.9424 15.1665 15.0325 15.0962 15.1023C14.9565 15.2424 14.7666 15.3223 14.5664 15.3223C14.3662 15.3223 14.1763 15.2424 14.0366 15.1023C13.9663 15.0325 13.9165 14.9424 13.8765 14.8523C13.8364 14.7625 13.8164 14.6733 13.8164 14.5723C13.8164 14.4724 13.8364 14.3723 13.8765 14.2825C13.9165 14.1924 13.9663 14.1123 14.0366 14.0425C14.3164 13.7625 14.8164 13.7625 15.0962 14.0425ZM15.1001 8.89917C15.3662 9.16553 15.3906 9.58203 15.1729 9.87573L15.1001 9.95972L9.95996 15.0999C9.66699 15.3928 9.19238 15.3928 8.89941 15.0999C8.6333 14.8335 8.60889 14.417 8.82666 14.1233L8.89941 14.0391L14.0396 8.89917C14.332 8.6062 14.8071 8.6062 15.1001 8.89917ZM9.95605 8.90283C10.0962 9.04175 10.1763 9.23267 10.1763 9.43286C10.1763 9.53271 10.1665 9.62183 10.1265 9.71289C10.0864 9.80273 10.0264 9.88281 9.95605 9.96289C9.88623 10.0327 9.80615 10.0818 9.71631 10.1218C9.62646 10.1619 9.52637 10.1829 9.42627 10.1829C9.32617 10.1829 9.23633 10.1619 9.14648 10.1218C9.05615 10.0818 8.96631 10.0327 8.89648 9.96289C8.82617 9.88281 8.77637 9.80273 8.73633 9.71289C8.69629 9.62183 8.67627 9.53271 8.67627 9.43286C8.67627 9.33179 8.69629 9.23267 8.73633 9.14282C8.77637 9.05273 8.82617 8.96289 8.89648 8.90283C9.18652 8.62183 9.67627 8.62183 9.95605 8.90283Z" fill="#3B5162" fill-opacity="1.000000" fill-rule="nonzero"/>
	</g>
</svg>
