<svg width="24.000000" height="24.000000" viewBox="0 0 24 24" fill="none" xmlns="http://www.w3.org/2000/svg" xmlns:xlink="http://www.w3.org/1999/xlink">
	<desc>
			Created with Pixso.
	</desc>
	<defs>
		<clipPath id="clip186_71">
			<rect id="Icon / Line / Edit" width="24.000000" height="24.000000" fill="white" fill-opacity="0"/>
		</clipPath>
	</defs>
	<rect id="Icon / Line / Edit" width="24.000000" height="24.000000" fill="#000000" fill-opacity="0"/>
	<g clip-path="url(#clip186_71)">
		<path id="Vector" d="M20.3413 19.209C20.7051 19.209 21 19.498 21 19.8545C21 20.1814 20.7524 20.4514 20.4307 20.4941L20.3413 20.5L13.4712 20.5C13.1074 20.5 12.8125 20.2109 12.8125 19.8545C12.8125 19.5276 13.0601 19.2576 13.3818 19.2148L13.4712 19.209L20.3413 19.209ZM13.6592 4.4165C14.9062 3.19458 16.9282 3.19458 18.1748 4.4165L19.4692 5.6853C20.7163 6.90747 20.7163 8.88989 19.4692 10.1121L9.74072 19.6487C9.18408 20.1938 8.43018 20.5 7.64258 20.5L3.65869 20.5C3.28857 20.5 2.99121 20.2009 3 19.8384L3.10059 15.8975C3.12012 15.1526 3.43115 14.4426 3.96875 13.9158L13.6592 4.4165ZM12.9058 6.979L4.8999 14.8286C4.60107 15.1216 4.42822 15.5168 4.41699 15.9304L4.3335 19.2085L7.64258 19.2087C8.03223 19.2087 8.40674 19.0745 8.70215 18.8318L8.80908 18.7356L16.855 10.8491L12.9058 6.979ZM17.2437 5.32959C16.5112 4.61157 15.3228 4.61157 14.5903 5.32959L13.8379 6.06592L17.7861 9.93604L18.5381 9.19897C19.23 8.521 19.2681 7.44434 18.6533 6.72192L18.5381 6.59839L17.2437 5.32959Z" fill="#3B5162" fill-opacity="1.000000" fill-rule="nonzero"/>
	</g>
</svg>
