<svg width="24.000000" height="24.000000" viewBox="0 0 24 24" fill="none" xmlns="http://www.w3.org/2000/svg" xmlns:xlink="http://www.w3.org/1999/xlink">
	<desc>
			Created with Pixso.
	</desc>
	<defs>
		<clipPath id="clip194_1345">
			<rect id="Icon / Line / Export" width="24.000000" height="24.000000" fill="white" fill-opacity="0"/>
		</clipPath>
	</defs>
	<rect id="Icon / Line / Export" width="24.000000" height="24.000000" fill="#000000" fill-opacity="0"/>
	<g clip-path="url(#clip194_1345)">
		<path id="Vector" d="M14.4736 2.00024C14.5171 2.00024 14.5591 2.00391 14.6001 2.01074L14.7363 2.01196C14.9409 2.01196 15.1362 2.09521 15.2773 2.24243L20.3433 7.51855C20.4775 7.6582 20.5522 7.84424 20.5522 8.03784L20.5522 17.228C20.5522 19.7229 18.5283 21.865 16.0723 21.865L8.08447 21.865C5.50146 21.865 3.50049 19.8254 3.50049 17.228L3.50049 6.49097C3.50049 4.02979 5.59717 2.01196 8.08447 2.01196L14.3477 2.01074C14.3887 2.00391 14.4307 2.00024 14.4736 2.00024ZM13.7236 3.51025L8.08447 3.51196C6.41309 3.51196 5.00049 4.87134 5.00049 6.49097L5.00049 17.228C5.00049 19.0034 6.33643 20.365 8.08447 20.365L16.0723 20.365C17.6802 20.365 19.0522 18.9128 19.0522 17.228L19.0513 8.98315L18.1758 8.98633C17.8423 8.98584 17.4629 8.98511 17.041 8.98413C15.271 8.98047 13.8267 7.59375 13.729 5.84766L13.7236 5.65918L13.7236 3.51025ZM11.6406 8.69092C12.0205 8.69092 12.3345 8.9729 12.3838 9.33911L12.3906 9.44092L12.3906 14.1953L13.9478 12.634C14.2402 12.3406 14.7153 12.3396 15.0088 12.6318C15.2754 12.8975 15.3003 13.3142 15.0835 13.6082L15.0107 13.6924L12.1719 16.5435L12.1279 16.584C12.1177 16.5928 12.1069 16.6016 12.0962 16.6099L12.1719 16.5435C12.1353 16.5803 12.0952 16.6128 12.0537 16.6404C12.0391 16.6497 12.0234 16.6592 12.0078 16.6682C11.9941 16.676 11.981 16.6829 11.9678 16.6892C11.9512 16.697 11.9346 16.7043 11.917 16.7112C11.9004 16.7183 11.8823 16.7246 11.8647 16.73C11.8511 16.7341 11.8374 16.738 11.8232 16.7415C11.8032 16.7468 11.7832 16.751 11.7632 16.7542C11.751 16.7559 11.7388 16.7576 11.7271 16.759C11.7031 16.762 11.6797 16.7637 11.6558 16.7642C11.6509 16.7637 11.646 16.7639 11.6406 16.7639L11.626 16.7642C11.6016 16.7637 11.5771 16.762 11.5527 16.759L11.6406 16.7639C11.6001 16.7639 11.5601 16.7605 11.5205 16.7544C11.499 16.7512 11.4771 16.7466 11.4556 16.7412C11.4443 16.738 11.4331 16.7349 11.4219 16.7314C11.3999 16.7253 11.3789 16.7178 11.3574 16.7092C11.3462 16.7039 11.3354 16.6992 11.3242 16.6941C11.3066 16.6865 11.2896 16.6775 11.2725 16.668C11.2573 16.6587 11.2422 16.6497 11.2275 16.6396C11.2158 16.6326 11.2041 16.6248 11.1929 16.6165L11.1855 16.6099C11.1743 16.6016 11.1641 16.5928 11.1533 16.584L11.1089 16.5435L8.271 13.6924C7.97852 13.3987 7.97949 12.9238 8.27344 12.6316C8.54004 12.366 8.95703 12.3428 9.25 12.5613L9.33398 12.634L10.8906 14.1982L10.8906 9.44092C10.8906 9.02661 11.2266 8.69092 11.6406 8.69092ZM15.2236 4.35132L15.2236 5.65918C15.2236 6.66577 16.0381 7.48218 17.0444 7.48413L18.2314 7.48413L15.2236 4.35132Z" fill="#3B5162" fill-opacity="1.000000" fill-rule="nonzero"/>
	</g>
</svg>
