<svg width="24.000000" height="24.000000" viewBox="0 0 24 24" fill="none" xmlns="http://www.w3.org/2000/svg" xmlns:xlink="http://www.w3.org/1999/xlink">
	<desc>
			Created with Pixso.
	</desc>
	<defs>
		<clipPath id="clip175_867">
			<rect id="Icon / Line / Home" width="24.000000" height="24.000000" fill="white" fill-opacity="0"/>
		</clipPath>
	</defs>
	<rect id="Icon / Line / Home" width="24.000000" height="24.000000" fill="#000000" fill-opacity="0"/>
	<g clip-path="url(#clip175_867)">
		<path id="Vector" d="M9.73047 2.78833C11.0005 1.7793 12.7803 1.73926 14.0894 2.66821L14.2505 2.78833L20.3394 7.65918C21.0093 8.17822 21.4204 8.94922 21.4907 9.78833L21.5005 9.98926L21.5005 18.0981C21.5005 20.1882 19.8496 21.8882 17.7803 21.9983L15.7905 21.9983C14.8394 21.9792 14.0703 21.2393 14.0005 20.3093L13.9907 20.1682L13.9907 17.3093C13.9907 16.9983 13.7593 16.7393 13.4507 16.6882L13.3604 16.6782L10.6895 16.6782C10.3706 16.6882 10.1104 16.9182 10.0703 17.2183L10.0605 17.3093L10.0605 20.1592C10.0605 20.2183 10.0493 20.2883 10.0405 20.3381L10.0303 20.3591L10.0195 20.4282C9.90039 21.2793 9.20068 21.9282 8.33057 21.9893L8.20068 21.9983L6.41064 21.9983C4.32031 21.9983 2.61035 20.3591 2.50049 18.2983L2.50049 9.98926C2.50928 9.13818 2.88037 8.34814 3.50049 7.79834L9.73047 2.78833ZM13.3804 3.87817C12.6206 3.26831 11.5405 3.23926 10.7407 3.76831L10.5894 3.87817L4.50928 8.7793C4.16064 9.03833 3.95068 9.42822 3.90039 9.83813L3.88965 9.99829L3.88965 18.0981C3.88965 19.4282 4.92969 20.5183 6.25049 20.5981L8.20068 20.5981C8.42041 20.5981 8.61035 20.4492 8.63965 20.2393L8.66064 20.0593L8.67041 20.0083L8.67041 17.3093C8.67041 16.2393 9.49072 15.3691 10.5405 15.2883L13.3604 15.2883C14.4297 15.2883 15.2993 16.1091 15.3804 17.1592L15.3804 20.1682C15.3804 20.3782 15.5303 20.5593 15.7305 20.5981L17.5894 20.5981C18.9297 20.5981 20.0195 19.5693 20.0996 18.2583L20.1104 18.0981L20.1104 9.99829C20.0996 9.56934 19.9204 9.16821 19.6104 8.86914L19.4805 8.7583L13.3804 3.87817Z" fill="#3B5162" fill-opacity="1.000000" fill-rule="nonzero"/>
	</g>
</svg>
