<svg width="24.000000" height="24.000000" viewBox="0 0 24 24" fill="none" xmlns="http://www.w3.org/2000/svg" xmlns:xlink="http://www.w3.org/1999/xlink">
	<desc>
			Created with Pixso.
	</desc>
	<defs>
		<clipPath id="clip175_1013">
			<rect id="Icon / Line / Log Out" width="24.000000" height="24.000000" fill="white" fill-opacity="0"/>
		</clipPath>
	</defs>
	<rect id="Icon / Line / Log Out" width="24.000000" height="24.000000" fill="#000000" fill-opacity="0"/>
	<g clip-path="url(#clip175_1013)">
		<path id="Vector" d="M11.3311 2.02148C13.7104 2.02148 15.6523 3.89551 15.7612 6.2478L15.7661 6.45654L15.7661 7.3894C15.7661 7.80371 15.4302 8.1394 15.0161 8.1394C14.6362 8.1394 14.3223 7.85742 14.2729 7.49121L14.2661 7.3894L14.2661 6.45654C14.2661 4.89355 13.0439 3.61572 11.5034 3.52637L11.3311 3.52148L6.45605 3.52148C4.89404 3.52148 3.61621 4.74365 3.52686 6.28418L3.52197 6.45654L3.52197 17.5864C3.52197 19.1492 4.74365 20.4272 6.28369 20.5166L6.45605 20.5215L11.3408 20.5215C12.8984 20.5215 14.1719 19.304 14.2612 17.7693L14.2661 17.5974L14.2661 16.6545C14.2661 16.2402 14.6016 15.9045 15.0161 15.9045C15.3955 15.9045 15.7095 16.1865 15.7593 16.5527L15.7661 16.6545L15.7661 17.5974C15.7661 19.9688 13.8989 21.9045 11.5552 22.0164L11.3408 22.0215L6.45605 22.0215C4.07764 22.0215 2.13574 20.1475 2.02686 17.7952L2.02197 17.5864L2.02197 6.45654C2.02197 4.07739 3.89551 2.13525 6.24707 2.02637L6.45605 2.02148L11.3311 2.02148ZM19.3262 8.50244L19.4102 8.57471L22.3384 11.4897C22.3647 11.5159 22.3877 11.5425 22.4092 11.5708L22.3384 11.4897C22.3687 11.5203 22.3965 11.5525 22.4204 11.5864C22.4375 11.6104 22.4531 11.6355 22.4678 11.6614C22.4702 11.6665 22.4727 11.6714 22.4756 11.6765C22.4883 11.7004 22.4995 11.7253 22.5093 11.7507C22.5132 11.762 22.5171 11.7734 22.521 11.7847C22.5283 11.8057 22.5347 11.8274 22.5396 11.8494C22.542 11.8611 22.5444 11.8728 22.5469 11.8845C22.5508 11.905 22.5537 11.926 22.5557 11.9475C22.5571 11.9624 22.5581 11.9771 22.5586 11.9917C22.5591 12.0017 22.5596 12.0115 22.5596 12.0215L22.5586 12.0498C22.5581 12.0652 22.5571 12.0806 22.5557 12.0957L22.5596 12.0215C22.5596 12.0681 22.5552 12.114 22.5469 12.1584C22.5444 12.1697 22.542 12.1814 22.5396 12.1931C22.5342 12.2163 22.5278 12.2388 22.5205 12.2607C22.5166 12.271 22.5132 12.2812 22.5088 12.2915C22.4995 12.3164 22.4888 12.3406 22.4771 12.3638C22.4741 12.3691 22.4707 12.375 22.4673 12.3809C22.4331 12.4443 22.3901 12.5015 22.3398 12.5518L22.3384 12.5527L19.4106 15.4688C19.1167 15.761 18.6421 15.76 18.3496 15.4666C18.084 15.1997 18.0605 14.783 18.2793 14.4897L18.3521 14.4058L19.9912 12.7705L9.76855 12.7715C9.35449 12.7715 9.01855 12.4355 9.01855 12.0215C9.01855 11.6416 9.30078 11.3279 9.6665 11.2783L9.76855 11.2715L19.9932 11.2705L18.3521 9.6377C18.085 9.37207 18.0601 8.95557 18.2773 8.66138L18.3496 8.57715C18.6152 8.3103 19.0317 8.28516 19.3262 8.50244Z" fill="#3B5162" fill-opacity="1.000000" fill-rule="nonzero"/>
	</g>
</svg>
