<svg width="24.000000" height="24.000000" viewBox="0 0 24 24" fill="none" xmlns="http://www.w3.org/2000/svg" xmlns:xlink="http://www.w3.org/1999/xlink">
	<desc>
			Created with Pixso.
	</desc>
	<defs>
		<clipPath id="clip175_852">
			<rect id="Icon / Line / Message" width="24.000000" height="24.000000" fill="white" fill-opacity="0"/>
		</clipPath>
	</defs>
	<rect id="Icon / Line / Message" width="24.000000" height="24.000000" fill="#000000" fill-opacity="0"/>
	<g clip-path="url(#clip175_852)">
		<path id="Vector" d="M16.3213 2.75806C17.835 2.77515 19.2759 3.41602 20.3086 4.53149C21.3408 5.64697 21.8745 7.13965 21.7866 8.61694L21.7852 14.854C21.8745 16.3765 21.3408 17.8691 20.3086 18.9846C19.2759 20.1001 17.835 20.741 16.3125 20.7581L7.25195 20.7581C4.08252 20.7581 1.7959 18.1965 1.7959 14.8992L1.7959 8.61694C1.7959 5.31958 4.08252 2.75806 7.25195 2.75806L16.3213 2.75806ZM16.3042 4.28638L7.25195 4.28638C4.9585 4.28638 3.31348 6.12964 3.31348 8.61694L3.31348 14.8992C3.31348 17.3865 4.9585 19.2297 7.25195 19.2297L16.3042 19.2297C17.4033 19.2173 18.4492 18.7522 19.1987 17.9424C19.9478 17.1328 20.3354 16.0491 20.269 14.8992L20.2705 8.57202C20.3354 7.46704 19.9478 6.3833 19.1987 5.57373C18.4492 4.76392 17.4033 4.29883 16.3042 4.28638ZM17.8198 8.39648C18.0581 8.69604 18.0356 9.12061 17.7842 9.39355L17.7017 9.4707L13.5947 12.7817C12.5972 13.5647 11.2188 13.604 10.1787 12.8955L10.0176 12.7776L5.8833 9.47266C5.55518 9.21021 5.5 8.72949 5.76074 8.39893C5.99707 8.09839 6.41309 8.02539 6.7334 8.21167L6.82666 8.27539L10.9556 11.5762C11.4185 11.9397 12.0532 11.9675 12.5366 11.6648L12.6543 11.5823L16.7534 8.27734C17.0806 8.01367 17.5581 8.06689 17.8198 8.39648Z" fill="#3B5162" fill-opacity="1.000000" fill-rule="nonzero"/>
	</g>
</svg>
