<svg width="24.000000" height="24.000000" viewBox="0 0 24 24" fill="none" xmlns="http://www.w3.org/2000/svg" xmlns:xlink="http://www.w3.org/1999/xlink">
	<desc>
			Created with Pixso.
	</desc>
	<defs>
		<clipPath id="clip175_847">
			<rect id="Icon / Line / Notification" width="24.000000" height="24.000000" fill="white" fill-opacity="0"/>
		</clipPath>
	</defs>
	<rect id="Icon / Line / Notification" width="24.000000" height="24.000000" fill="#000000" fill-opacity="0"/>
	<g clip-path="url(#clip175_847)">
		<path id="Vector" d="M14.6079 19.6907C14.9048 19.9321 14.9517 20.3713 14.7129 20.6716C14.5366 20.8936 14.3325 21.0923 14.1167 21.2551C13.3892 21.8259 12.4639 22.085 11.5454 21.9753C10.626 21.866 9.78711 21.3962 9.21436 20.6689C8.97754 20.3677 9.02637 19.9287 9.32422 19.6885C9.62207 19.4485 10.0557 19.498 10.2925 19.7996C10.6377 20.238 11.1465 20.5229 11.7065 20.5896C12.2671 20.6565 12.8306 20.4985 13.2827 20.1443C13.416 20.0437 13.5356 19.927 13.6392 19.7969C13.8774 19.4966 14.3115 19.449 14.6079 19.6907ZM5.15234 8.99976L5.16455 8.40381C5.17334 8.14917 5.18701 7.9126 5.20703 7.68091C5.50635 4.44458 8.5957 2 11.9648 2L12.0361 2C15.4033 2 18.4937 4.44287 18.8032 7.6853C18.8213 7.8916 18.8286 8.07446 18.8311 8.33203L18.832 9.11987C18.8325 9.19165 18.834 9.25464 18.8359 9.31348L18.8452 9.50977L18.8896 9.69678C19.0303 10.218 19.2773 10.7053 19.6162 11.1282L19.7671 11.3054L19.8286 11.3848C20.2349 11.9917 20.4668 12.698 20.5 13.4587L20.499 13.8621C20.4707 14.7629 20.1401 15.6331 19.5337 16.3582C18.731 17.21 17.6436 17.7393 16.4873 17.8457C13.502 18.1699 10.4902 18.1699 7.51318 17.8467C6.34912 17.7346 5.26465 17.207 4.42676 16.3223C3.80859 15.5691 3.48047 14.6208 3.50098 13.6624L3.50195 13.4241C3.5376 12.6956 3.76807 11.9897 4.16943 11.3801L4.23633 11.2937C4.70508 10.78 5.02588 10.1511 5.16455 9.47314L5.1499 9.53394L5.15234 8.99976ZM12.0361 3.39526L11.9648 3.39526C9.2666 3.39526 6.80811 5.34082 6.57959 7.80688C6.56787 7.94238 6.55859 8.08203 6.55127 8.22925L6.53516 8.69556L6.52881 9.61475L6.51465 9.75659C6.32422 10.6831 5.88721 11.541 5.24951 12.2405L5.29834 12.1833L5.21045 12.3291C5.04541 12.6265 4.93896 12.9495 4.89697 13.2683L4.87939 13.4587L4.87939 13.6775C4.86572 14.3142 5.08105 14.9355 5.45361 15.3931C6.02881 15.9985 6.80664 16.377 7.65186 16.4583C10.5391 16.772 13.4526 16.772 16.3516 16.4573C17.187 16.3801 17.9644 16.002 18.5083 15.4268C18.9199 14.9331 19.1377 14.3096 19.1216 13.6536L19.1226 13.4902C19.1011 13.0186 18.9512 12.5613 18.6875 12.1672L18.7026 12.1926L18.5649 12.0308C18.0894 11.4441 17.7441 10.7634 17.5518 10.0339L17.4868 9.7583L17.4741 9.66553C17.4644 9.53003 17.4585 9.40991 17.4556 9.26514L17.4526 8.3606C17.4512 8.13037 17.4448 7.97559 17.4307 7.81323C17.1943 5.34082 14.7334 3.39526 12.0361 3.39526Z" fill="#3B5162" fill-opacity="1.000000" fill-rule="nonzero"/>
	</g>
</svg>
