<svg width="24.000000" height="24.000000" viewBox="0 0 24 24" fill="none" xmlns="http://www.w3.org/2000/svg" xmlns:xlink="http://www.w3.org/1999/xlink">
	<desc>
			Created with Pixso.
	</desc>
	<defs>
		<clipPath id="clip181_116">
			<rect id="Icon / Line / Option" width="24.000000" height="24.000000" fill="white" fill-opacity="0"/>
		</clipPath>
	</defs>
	<rect id="Icon / Line / Option" width="24.000000" height="24.000000" fill="#000000" fill-opacity="0"/>
	<g clip-path="url(#clip181_116)">
		<path id="Vector" d="M18.2373 14.0725C20.3125 14.0725 21.9995 15.7378 21.9995 17.7861C21.9995 19.8335 20.3125 21.5 18.2373 21.5C16.1621 21.5 14.4751 19.8335 14.4751 17.7861C14.4751 15.7378 16.1621 14.0725 18.2373 14.0725ZM18.2373 15.8145C17.1353 15.8145 16.2397 16.6982 16.2397 17.7861C16.2397 18.8733 17.1353 19.7581 18.2373 19.7581C19.3398 19.7581 20.2349 18.8733 20.2349 17.7861C20.2349 16.6982 19.3398 15.8145 18.2373 15.8145ZM10.1172 16.915C10.604 16.915 10.9995 17.3052 10.9995 17.7859C10.9995 18.2666 10.604 18.6567 10.1172 18.6567L2.8833 18.6567C2.396 18.6567 2.00098 18.2666 2.00098 17.7859C2.00098 17.3052 2.396 16.915 2.8833 16.915L10.1172 16.915ZM5.76221 2.5C7.8374 2.5 9.52441 4.1665 9.52441 6.21387C9.52441 8.26099 7.8374 9.92749 5.76221 9.92749C3.68799 9.92749 2 8.26099 2 6.21387C2 4.1665 3.68799 2.5 5.76221 2.5ZM5.76221 4.24194C4.66113 4.24194 3.76465 5.12671 3.76465 6.21387C3.76465 7.30078 4.66113 8.18555 5.76221 8.18555C6.86475 8.18555 7.75977 7.30078 7.75977 6.21387C7.75977 5.12671 6.86475 4.24194 5.76221 4.24194ZM21.1177 5.34302C21.6045 5.34302 22 5.73315 22 6.21411C22 6.69482 21.6045 7.08496 21.1177 7.08496L13.8823 7.08496C13.3955 7.08496 13 6.69482 13 6.21411C13 5.73315 13.3955 5.34302 13.8823 5.34302L21.1177 5.34302Z" fill="#3B5162" fill-opacity="1.000000" fill-rule="nonzero"/>
	</g>
</svg>
