<svg width="24.000000" height="24.000000" viewBox="0 0 24 24" fill="none" xmlns="http://www.w3.org/2000/svg" xmlns:xlink="http://www.w3.org/1999/xlink">
	<desc>
			Created with Pixso.
	</desc>
	<defs>
		<clipPath id="clip190_1380">
			<rect id="Icon / Line / Order" width="24.000000" height="24.000000" fill="white" fill-opacity="0"/>
		</clipPath>
	</defs>
	<rect id="Icon / Line / Order" width="24.000000" height="24.000000" fill="#000000" fill-opacity="0"/>
	<g clip-path="url(#clip190_1380)">
		<path id="Vector" d="M14.9858 2C18.0483 2 20 3.43506 20 6.25757L20 20.3311C20 20.7737 19.8286 21.1982 19.5229 21.5112C19.2178 21.8242 18.8037 22 18.3608 22C18.0967 21.9956 17.8369 21.9292 17.5864 21.7971L11.9741 18.6636L6.38428 21.8037C5.71143 22.1624 4.89551 21.9968 4.38428 21.3975L4.28613 21.272L4.19238 21.1174C4.07031 20.8782 4.00439 20.613 4 20.3311L4 6.43433C4 3.49927 5.90918 2 9.01416 2L14.9858 2ZM14.9858 3.44775L9.01416 3.44775C6.61914 3.44775 5.41211 4.39575 5.41211 6.43433L5.41211 20.3188C5.4126 20.363 5.42334 20.4065 5.41162 20.3896L5.44922 20.4519C5.51367 20.542 5.63477 20.5715 5.71973 20.5266L11.3066 17.3882C11.7231 17.1577 12.2251 17.1577 12.6436 17.3894L18.2461 20.5173C18.2886 20.5396 18.3354 20.5518 18.3721 20.5522C18.4292 20.5522 18.4844 20.5291 18.5249 20.4875C18.5654 20.446 18.5879 20.3896 18.5879 20.3311L18.5879 6.25757C18.5879 4.35791 17.3501 3.44775 14.9858 3.44775ZM15.4077 8.31665C15.7979 8.31665 16.1138 8.64062 16.1138 9.04053C16.1138 9.40698 15.8481 9.70972 15.5039 9.75781L15.4077 9.7644L8.54053 9.7644C8.15039 9.7644 7.83447 9.44019 7.83447 9.04053C7.83447 8.67407 8.1001 8.37109 8.44482 8.32324L8.54053 8.31665L15.4077 8.31665Z" fill="#3B5162" fill-opacity="1.000000" fill-rule="nonzero"/>
	</g>
</svg>
