<svg width="24.000000" height="24.000000" viewBox="0 0 24 24" fill="none" xmlns="http://www.w3.org/2000/svg" xmlns:xlink="http://www.w3.org/1999/xlink">
	<desc>
			Created with Pixso.
	</desc>
	<defs/>
	<rect id="Icon / Line / Print" width="24.000000" height="24.000000" fill="#FFFFFF" fill-opacity="0"/>
	<path id="Rectangle 12 (Stroke)" d="M1.25 8C1.25 6.4812 2.48145 5.25 4 5.25L20 5.25C21.5186 5.25 22.75 6.4812 22.75 8L22.75 16C22.75 17.5188 21.5186 18.75 20 18.75L18 18.75C17.5859 18.75 17.25 18.4143 17.25 18C17.25 17.5857 17.5859 17.25 18 17.25L20 17.25C20.6904 17.25 21.25 16.6904 21.25 16L21.25 8C21.25 7.30957 20.6904 6.75 20 6.75L4 6.75C3.30957 6.75 2.75 7.30957 2.75 8L2.75 16C2.75 16.6904 3.30957 17.25 4 17.25L6 17.25C6.41406 17.25 6.75 17.5857 6.75 18C6.75 18.4143 6.41406 18.75 6 18.75L4 18.75C2.48145 18.75 1.25 17.5188 1.25 16L1.25 8Z" fill="#3B5162" fill-opacity="1.000000" fill-rule="evenodd"/>
	<path id="Ellipse 42" d="M20 9.5C20 10.3284 19.3286 11 18.5 11C17.6714 11 17 10.3284 17 9.5C17 8.67163 17.6714 8 18.5 8C19.3286 8 20 8.67163 20 9.5Z" fill="#3B5162" fill-opacity="1.000000" fill-rule="nonzero"/>
	<path id="Rectangle 13 (Stroke)" d="M5.25 2C5.25 1.58569 5.58594 1.25 6 1.25L18 1.25C18.4141 1.25 18.75 1.58569 18.75 2L18.75 6C18.75 6.41431 18.4141 6.75 18 6.75L6 6.75C5.58594 6.75 5.25 6.41431 5.25 6L5.25 2ZM6.75 2.75L6.75 5.25L17.25 5.25L17.25 2.75L6.75 2.75Z" fill="#3B5162" fill-opacity="1.000000" fill-rule="evenodd"/>
	<path id="Rectangle 13 (Stroke)" d="M5.25 14C5.25 13.5857 5.58594 13.25 6 13.25L18 13.25C18.4141 13.25 18.75 13.5857 18.75 14L18.75 22C18.75 22.4143 18.4141 22.75 18 22.75L6 22.75C5.58594 22.75 5.25 22.4143 5.25 22L5.25 14ZM6.75 14.75L6.75 21.25L17.25 21.25L17.25 14.75L6.75 14.75Z" fill="#3B5162" fill-opacity="1.000000" fill-rule="evenodd"/>
</svg>
