<svg width="24.000000" height="24.000000" viewBox="0 0 24 24" fill="none" xmlns="http://www.w3.org/2000/svg" xmlns:xlink="http://www.w3.org/1999/xlink">
	<desc>
			Created with Pixso.
	</desc>
	<defs>
		<clipPath id="clip177_1878">
			<rect id="Icon / Line / Restaurant" width="24.000000" height="24.000000" fill="white" fill-opacity="0"/>
		</clipPath>
	</defs>
	<rect id="Icon / Line / Restaurant" width="24.000000" height="24.000000" fill="#FFFFFF" fill-opacity="0"/>
	<g clip-path="url(#clip177_1878)">
		<path id="Vector" d="M21.9634 6.77441L20.5352 2.48853C20.438 2.19678 20.1646 2 19.8569 2L4.14307 2C3.83545 2 3.56201 2.19678 3.46484 2.48853L2.03662 6.77441C2.01465 6.84106 2.00195 6.91064 2 6.98071C2 6.98779 2 6.99292 2 7L2 7.71436C2.00244 8.8335 2.53174 9.88623 3.42871 10.5557C3.42871 10.5615 3.42871 10.5657 3.42871 10.5715L3.42871 19.8572C3.42871 21.0405 4.38818 22 5.57129 22L18.4287 22C19.6118 22 20.5713 21.0405 20.5713 19.8572L20.5713 10.5715C20.5713 10.5657 20.5713 10.5615 20.5713 10.5557C21.4683 9.88623 21.9976 8.8335 22 7.71436L22 7C22 6.99292 22 6.98779 22 6.98071C21.998 6.9104 21.9858 6.84106 21.9634 6.77441ZM4.7002 3.42847L19.3423 3.42847L20.2949 6.28564L3.7002 6.28564L4.7002 3.42847ZM13.4287 20.5713L10.5713 20.5713L10.5713 14.8572L13.4287 14.8572L13.4287 20.5713ZM19.1431 19.8572C19.1431 20.2517 18.8232 20.5715 18.4287 20.5715L14.8569 20.5715L14.8569 14.1428C14.8569 13.7483 14.5371 13.4285 14.1431 13.4285L9.85693 13.4285C9.4624 13.4285 9.14307 13.7483 9.14307 14.1428L9.14307 20.5715L5.57129 20.5715C5.17676 20.5715 4.85693 20.2517 4.85693 19.8572L4.85693 11.2144C5.85938 11.4202 6.90186 11.1809 7.71436 10.5586C8.98926 11.4951 10.7251 11.4951 12 10.5586C13.2749 11.4951 15.0107 11.4951 16.2856 10.5586C17.0981 11.1809 18.1406 11.4202 19.1431 11.2144L19.1431 19.8572ZM18.4287 9.85718C17.811 9.85669 17.2241 9.58569 16.8237 9.11572C16.564 8.8186 16.1128 8.78833 15.8159 9.04785C15.7915 9.06885 15.769 9.09155 15.748 9.11572C14.9536 10.0022 13.5913 10.0769 12.7046 9.28271C12.646 9.22998 12.5903 9.17432 12.5376 9.11572C12.2583 8.8186 11.791 8.80444 11.4937 9.08398C11.4829 9.09424 11.4722 9.10474 11.4619 9.11572C10.668 10.0022 9.30566 10.0769 8.41895 9.28271C8.36035 9.22998 8.30469 9.17432 8.25195 9.11572C7.97266 8.8186 7.50537 8.80444 7.20801 9.08398C7.19727 9.09424 7.18652 9.10474 7.17627 9.11572C6.77588 9.58569 6.18896 9.85669 5.57129 9.85718C4.38818 9.85718 3.42871 8.89771 3.42871 7.71436L20.5713 7.71436C20.5713 8.89771 19.6118 9.85718 18.4287 9.85718Z" fill="#3B5162" fill-opacity="1.000000" fill-rule="nonzero"/>
	</g>
</svg>
