<svg width="24.000000" height="24.000000" viewBox="0 0 24 24" fill="none" xmlns="http://www.w3.org/2000/svg" xmlns:xlink="http://www.w3.org/1999/xlink">
	<desc>
			Created with Pixso.
	</desc>
	<defs>
		<clipPath id="clip177_2169">
			<rect id="Icon / Line / Security" width="24.000000" height="24.000000" fill="white" fill-opacity="0"/>
		</clipPath>
	</defs>
	<rect id="Icon / Line / Security" width="24.000000" height="24.000000" fill="#000000" fill-opacity="0"/>
	<g clip-path="url(#clip177_2169)">
		<path id="Vector" d="M12.0098 2C14.3242 2 16.3579 3.44897 17.103 5.56665C17.2407 5.95801 17.0298 6.38525 16.6318 6.52075C16.2344 6.65625 15.7998 6.44873 15.6621 6.05737C15.1279 4.53931 13.6694 3.5 12.0068 3.5C9.93994 3.49194 8.24512 5.08154 8.13281 7.08569L8.12695 7.28101L8.12695 8.62598L15.8833 8.62646C18.3604 8.62646 20.3813 10.5457 20.4951 12.9553L20.5 13.1692L20.5 17.457C20.5 19.9661 18.4331 22 15.8833 22L8.1167 22C5.56689 22 3.5 19.9661 3.5 17.457L3.5 13.1692C3.5 11.1824 4.79639 9.49316 6.60205 8.87646L6.60254 7.27759C6.61523 4.35083 9.0376 1.98853 12.0098 2ZM15.8833 10.1262L8.1167 10.1262C6.40918 10.1262 5.0249 11.4885 5.0249 13.1692L5.0249 17.457C5.0249 19.1377 6.40918 20.5 8.1167 20.5L15.8833 20.5C17.5908 20.5 18.9751 19.1377 18.9751 17.457L18.9751 13.1692C18.9751 11.4885 17.5908 10.1262 15.8833 10.1262ZM12 13.4524C12.3862 13.4524 12.7051 13.7346 12.7554 14.1006L12.7627 14.2024L12.7627 16.4243C12.7627 16.8386 12.4214 17.1743 12 17.1743C11.6143 17.1743 11.2954 16.8921 11.2446 16.5261L11.2378 16.4243L11.2378 14.2024C11.2378 13.7881 11.5791 13.4524 12 13.4524Z" fill="#3B5162" fill-opacity="1.000000" fill-rule="nonzero"/>
	</g>
</svg>
