<svg width="24.000000" height="24.000000" viewBox="0 0 24 24" fill="none" xmlns="http://www.w3.org/2000/svg" xmlns:xlink="http://www.w3.org/1999/xlink">
	<desc>
			Created with Pixso.
	</desc>
	<defs>
		<clipPath id="clip175_803">
			<rect id="Icon / Line / Setting" width="24.000000" height="24.000000" fill="white" fill-opacity="0"/>
		</clipPath>
	</defs>
	<rect id="Icon / Line / Setting" width="24.000000" height="24.000000" fill="#000000" fill-opacity="0"/>
	<g clip-path="url(#clip175_803)">
		<path id="Vector" d="M12.6162 2C13.3252 1.99976 14.0039 2.28052 14.498 2.77881C14.9927 3.27686 15.2598 3.94971 15.2383 4.57764L15.2471 4.72534C15.2642 4.87085 15.3125 5.01123 15.3906 5.14062C15.5435 5.39575 15.7935 5.58081 16.0854 5.65503C16.3779 5.72949 16.688 5.68677 16.9819 5.51831L17.146 5.43555C18.376 4.8689 19.8511 5.31909 20.5332 6.47925L21.1465 7.52173C21.1626 7.54932 21.1768 7.57764 21.189 7.60669L21.2461 7.71851C21.7944 8.86523 21.4043 10.2292 20.3623 10.9224L20.105 11.0806C19.9707 11.1726 19.8584 11.2925 19.7739 11.4368C19.6221 11.6929 19.5801 11.998 19.6582 12.2844C19.7358 12.5708 19.9272 12.8149 20.2173 12.9792L20.3843 13.084C20.8887 13.4297 21.2529 13.9392 21.4121 14.5229C21.5913 15.1816 21.4951 15.8833 21.1401 16.4805L20.4805 17.5571L20.3809 17.709C19.606 18.8008 18.1011 19.1343 16.9526 18.4849L16.8164 18.4163C16.6748 18.354 16.5215 18.3198 16.3818 18.3162C16.0786 18.3147 15.7871 18.4321 15.5728 18.6423C15.3584 18.8523 15.2383 19.1379 15.2393 19.4697L15.231 19.6414C15.1201 20.9702 13.9844 22 12.6162 22L11.3809 22C9.93213 22 8.75781 20.8494 8.75928 19.4753L8.75049 19.3276C8.7334 19.1821 8.68506 19.0417 8.60254 18.9058C8.45312 18.6499 8.20605 18.4631 7.91553 18.387C7.625 18.3108 7.31543 18.3516 7.01562 18.5212L6.8374 18.6084C6.27441 18.8564 5.63965 18.9023 5.04443 18.7366C4.37305 18.5496 3.80518 18.1084 3.47412 17.5225L2.83691 16.4441L2.75195 16.2844C2.17139 15.0842 2.62646 13.6411 3.78125 12.9875L3.88623 12.9229C4.19482 12.7136 4.37988 12.3689 4.37988 12C4.37988 11.5989 4.16162 11.2283 3.7793 11.0115L3.62451 10.9141C2.50977 10.1548 2.16943 8.68042 2.85986 7.50684L3.50928 6.46167C4.23145 5.23364 5.83154 4.81006 7.0625 5.50171L7.1958 5.57129C7.33154 5.63232 7.479 5.66479 7.62109 5.66626C8.24756 5.66626 8.75781 5.17358 8.76709 4.54175L8.77588 4.3479C8.82715 3.74707 9.09326 3.18262 9.52783 2.75464C10.0186 2.27148 10.6855 2 11.3809 2L12.6162 2ZM12.6162 3.44775L11.3809 3.44775C11.0786 3.44775 10.7886 3.56592 10.5752 3.77588C10.3862 3.96191 10.2705 4.20752 10.2505 4.43652L10.2368 4.74146C10.1333 6.0708 8.99951 7.11426 7.61328 7.11401C7.25586 7.11035 6.90332 7.03296 6.54443 6.87036L6.35205 6.77075C5.80371 6.46313 5.10498 6.64819 4.78076 7.19922L4.13135 8.24463C3.83398 8.75049 3.98242 9.39478 4.44336 9.70923L4.7041 9.87109C5.42188 10.3467 5.85742 11.1431 5.85742 12C5.85742 12.8445 5.43408 13.634 4.70215 14.1296L4.54639 14.2256C4.03369 14.5164 3.83545 15.144 4.07422 15.6384L4.13037 15.7449L4.75928 16.8083C4.90723 17.0696 5.15527 17.2625 5.44824 17.344C5.7085 17.4165 5.98584 17.3965 6.20215 17.3018L6.31104 17.2498C6.91113 16.9065 7.62598 16.8125 8.29736 16.9885C8.96875 17.1646 9.54004 17.5959 9.87939 18.1768C10.062 18.478 10.1772 18.8132 10.2217 19.1985L10.2422 19.552C10.3042 20.1145 10.7905 20.5522 11.3809 20.5522L12.6162 20.5522C13.2139 20.5522 13.71 20.1023 13.7563 19.551L13.7622 19.4421C13.7588 18.7585 14.0347 18.1018 14.5278 17.6184C15.021 17.135 15.6914 16.865 16.4053 16.8687C16.7554 16.8777 17.1006 16.9546 17.4526 17.1101L17.7686 17.2681C18.2646 17.4814 18.853 17.3259 19.1509 16.9067L19.2236 16.7957L19.8682 15.7437C20.0205 15.4875 20.062 15.1824 19.9839 14.896C19.915 14.6421 19.7568 14.4207 19.5645 14.2881L19.2925 14.1196C18.7715 13.7747 18.3931 13.2563 18.23 12.6575C18.0508 11.9988 18.147 11.2971 18.4946 10.7126C18.6851 10.3872 18.9463 10.1074 19.2871 9.87524L19.4482 9.77612C19.96 9.48267 20.1577 8.85498 19.9214 8.35889L19.8506 8.22534L19.8379 8.19727L19.2529 7.20215C18.9766 6.73169 18.4009 6.52856 17.9126 6.68921L17.8013 6.73267L17.6982 6.78418C17.1001 7.12939 16.3862 7.22729 15.7144 7.0564C15.0425 6.8855 14.4673 6.45972 14.1182 5.87622C13.9355 5.57495 13.8203 5.23975 13.7754 4.85449L13.7622 4.60254C13.7715 4.29932 13.6548 4.00537 13.4385 3.78784C13.2227 3.57031 12.9263 3.44775 12.6162 3.44775ZM12.0034 8.73193C13.8457 8.73193 15.3389 10.1951 15.3389 12C15.3389 13.8049 13.8457 15.2681 12.0034 15.2681C10.1611 15.2681 8.66748 13.8049 8.66748 12C8.66748 10.1951 10.1611 8.73193 12.0034 8.73193ZM12.0034 10.1794C10.9771 10.1794 10.145 10.9946 10.145 12C10.145 13.0054 10.9771 13.8206 12.0034 13.8206C13.0293 13.8206 13.8613 13.0054 13.8613 12C13.8613 10.9946 13.0293 10.1794 12.0034 10.1794Z" fill="#3B5162" fill-opacity="1.000000" fill-rule="nonzero"/>
	</g>
</svg>
