<svg width="24.000000" height="24.000000" viewBox="0 0 24 24" fill="none" xmlns="http://www.w3.org/2000/svg" xmlns:xlink="http://www.w3.org/1999/xlink">
	<desc>
			Created with Pixso.
	</desc>
	<defs>
		<clipPath id="clip194_1454">
			<rect id="Icon / Line / Trash" width="24.000000" height="24.000000" fill="white" fill-opacity="0"/>
		</clipPath>
	</defs>
	<rect id="Icon / Line / Trash" width="24.000000" height="24.000000" fill="#000000" fill-opacity="0"/>
	<g clip-path="url(#clip194_1454)">
		<path id="Vector" d="M18.8789 8.71875L18.9785 8.72021C19.3477 8.75073 19.6304 9.05713 19.6499 9.42603L19.6406 9.63184L19.3262 13.4829L18.9961 17.2415C18.9263 17.9917 18.8638 18.6245 18.8101 19.1226C18.6226 20.8589 17.4956 21.9324 15.7964 21.9641C13.1494 22.0129 10.605 22.0125 8.13379 21.959C6.48389 21.9246 5.37354 20.8394 5.18945 19.1296L5.0625 17.8701L4.83984 15.427L4.6123 12.7461L4.35156 9.52783C4.31934 9.11499 4.61963 8.75342 5.02197 8.72021C5.39111 8.6897 5.71826 8.9458 5.79541 9.30688L5.8252 9.60181L6.06982 12.6187L6.33691 15.7458C6.45654 17.0996 6.56055 18.1951 6.64355 18.9648C6.74854 19.939 7.26123 20.4404 8.16406 20.4592C10.6157 20.5125 13.1416 20.5129 15.77 20.4644C16.7275 20.4463 17.249 19.95 17.356 18.9573L17.4829 17.7046C17.52 17.3186 17.5596 16.8923 17.6016 16.4292L17.8687 13.3538L18.1904 9.40747C18.2202 9.02905 18.519 8.73901 18.8789 8.71875ZM3.73145 6.98926C3.32764 6.98926 3 6.65332 3 6.23926C3 5.85938 3.27539 5.54565 3.63232 5.49609L3.73145 5.48901L6.91748 5.48901C7.29639 5.48901 7.62793 5.23926 7.74658 4.87939L7.77539 4.76807L8.02295 3.50537C8.24121 2.66895 8.94922 2.07349 9.77881 2.00635L9.93604 2L14.064 2C14.9072 2 15.6523 2.54639 15.939 3.39038L15.9873 3.552L16.2241 4.76782C16.2988 5.14868 16.6025 5.43311 16.9702 5.48169L17.082 5.48901L20.2686 5.48901C20.6724 5.48901 21 5.82495 21 6.23926C21 6.6189 20.7246 6.93262 20.3677 6.98242L20.2686 6.98926L3.73145 6.98926ZM14.064 3.5L9.93604 3.5C9.73047 3.5 9.54834 3.62329 9.47266 3.77808L9.44678 3.84595L9.20996 5.0625C9.18066 5.21094 9.13867 5.35376 9.08496 5.49023L14.915 5.49023C14.8813 5.40527 14.8525 5.31763 14.8281 5.22778L14.79 5.06201L14.5635 3.89282C14.5107 3.68994 14.3472 3.5415 14.1504 3.50732L14.064 3.5Z" fill="#3B5162" fill-opacity="1.000000" fill-rule="nonzero"/>
	</g>
</svg>
