<svg width="15.000000" height="16.666626" viewBox="0 0 15 16.6666" fill="none" xmlns="http://www.w3.org/2000/svg" xmlns:xlink="http://www.w3.org/1999/xlink">
	<desc>
			Created with Pixso.
	</desc>
	<defs/>
	<path id="Vector" d="M13.2324 5.599L13.3154 5.6001C13.6228 5.62561 13.8586 5.88098 13.875 6.18835L13.8669 6.35974L13.605 9.56909L13.3301 12.7012C13.272 13.3264 13.2197 13.8538 13.1748 14.2689C13.0188 15.7157 12.0796 16.6102 10.6638 16.6367C8.45776 16.6775 6.3374 16.6771 4.27808 16.6326C2.90332 16.6038 1.97803 15.6993 1.82471 14.2748L1.71851 13.2251L1.5332 11.1892L1.34351 8.95508L1.12646 6.27319C1.09937 5.9292 1.34961 5.62781 1.68506 5.6001C1.99268 5.57483 2.26514 5.78821 2.32935 6.08899L2.35425 6.33472L2.55811 8.84888L2.78052 11.455C2.88037 12.583 2.96704 13.496 3.03613 14.1373C3.12354 14.9492 3.55103 15.3669 4.30347 15.3828C6.34644 15.427 8.45117 15.4274 10.6418 15.387C11.4397 15.3719 11.874 14.9583 11.9634 14.1311L12.0688 13.0872C12.0999 12.7654 12.1328 12.4103 12.1677 12.0244L12.3906 9.46155L12.6589 6.17297C12.6836 5.85754 12.9326 5.61572 13.2324 5.599ZM0.609375 4.15759C0.272949 4.15759 0 3.87781 0 3.53259C0 3.21619 0.229248 2.95471 0.526855 2.91333L0.609375 2.90759L3.26465 2.90759C3.58032 2.90759 3.85645 2.69934 3.95532 2.39941L3.97949 2.30676L4.18579 1.25439C4.36768 0.557495 4.95776 0.0612793 5.64917 0.00524902L5.78003 0L9.21997 0C9.92285 0 10.5437 0.4552 10.7825 1.15869L10.8228 1.29346L11.0203 2.30652C11.0823 2.6239 11.3354 2.86096 11.6418 2.90149L11.7351 2.90759L14.3906 2.90759C14.7271 2.90759 15 3.1875 15 3.53259C15 3.849 14.7708 4.1106 14.4731 4.15198L14.3906 4.15759L0.609375 4.15759ZM9.21997 1.25L5.78003 1.25C5.60889 1.25 5.45703 1.35266 5.3938 1.48169L5.37231 1.53833L5.1748 2.552C5.15063 2.67566 5.11572 2.7948 5.07104 2.90845L9.92896 2.90857C9.90112 2.83777 9.87695 2.76465 9.85693 2.6897L9.82495 2.55176L9.63623 1.57739C9.59229 1.4082 9.45605 1.28455 9.29175 1.25623L9.21997 1.25Z" fill="#FF7CA3" fill-opacity="1.000000" fill-rule="nonzero"/>
</svg>
