<svg width="24.000000" height="24.000000" viewBox="0 0 24 24" fill="none" xmlns="http://www.w3.org/2000/svg" xmlns:xlink="http://www.w3.org/1999/xlink">
	<desc>
			Created with Pixso.
	</desc>
	<defs>
		<clipPath id="clip174_731">
			<rect id="Icon / Line / Wallet" width="24.000000" height="24.000000" fill="white" fill-opacity="0"/>
		</clipPath>
	</defs>
	<g clip-path="url(#clip174_731)">
		<path id="Vector" d="M16.188 2.5C19.3979 2.5 22 5.16113 22 8.44385L22 15.5562C22 18.8389 19.3979 21.5 16.188 21.5L7.81201 21.5C4.60205 21.5 2 18.8389 2 15.5562L2 8.44385C2 5.16113 4.60205 2.5 7.81201 2.5L16.188 2.5ZM16.188 3.98657L7.81201 3.98657C5.40479 3.98657 3.45361 5.98218 3.45361 8.44385L3.45361 15.5562C3.45361 18.0178 5.40479 20.0134 7.81201 20.0134L16.188 20.0134C18.5952 20.0134 20.5464 18.0178 20.5464 15.5562L20.5459 15.2791L17.3501 15.2798C15.5083 15.2786 14.0156 13.7532 14.0146 11.8694C14.0146 10.0491 15.4102 8.5625 17.1675 8.46436L17.3506 8.45923L20.5459 8.45898L20.5464 8.44385C20.5464 6.05444 18.708 4.10425 16.3989 3.9917L16.188 3.98657ZM20.5459 9.94507L17.3506 9.94556C16.311 9.94629 15.4683 10.8074 15.4683 11.8691C15.4688 12.8811 16.2329 13.7102 17.2031 13.7874L17.3506 13.7932L20.5459 13.793L20.5459 9.94507ZM17.7939 11.0652C18.1958 11.0652 18.521 11.3979 18.521 11.8083C18.521 12.1848 18.2476 12.4956 17.8926 12.5449L17.7939 12.5518L17.4922 12.5518C17.0908 12.5518 16.7651 12.219 16.7651 11.8083C16.7651 11.4321 17.0386 11.1211 17.3936 11.072L17.4922 11.0652L17.7939 11.0652ZM12.354 6.99731C12.7554 6.99731 13.0806 7.33008 13.0806 7.74072C13.0806 8.11694 12.8071 8.42798 12.4526 8.47705L12.354 8.48389L7.12207 8.48389C6.7207 8.48389 6.39502 8.15112 6.39502 7.74072C6.39502 7.36426 6.66846 7.05347 7.02344 7.00415L7.12207 6.99731L12.354 6.99731Z" fill="#3B5162" fill-opacity="1.000000" fill-rule="nonzero"/>
	</g>
</svg>
