<svg width="33.333374" height="31.666626" viewBox="0 0 33.3334 31.6666" fill="none" xmlns="http://www.w3.org/2000/svg" xmlns:xlink="http://www.w3.org/1999/xlink">
  <desc>
    Created with Pixso.
  </desc>
  <defs>
    <linearGradient id="paint_linear_45_3824_0" x1="16.666670" y1="0.000000" x2="16.666670" y2="31.666668" gradientUnits="userSpaceOnUse">
      <stop stop-color="#EA9769"/>
      <stop offset="1.000000" stop-color="#EA6969"/>
    </linearGradient>
  </defs>
  <path class="white-parts" d="M28.3334 0L5 0C2.24329 0 0 2.24329 0 5L0 9.71838C0 11.4734 0.636719 13.0684 1.66663 14.295L1.66663 30C1.66663 30.442 1.84229 30.866 2.15479 31.1785C2.46741 31.4911 2.89136 31.6666 3.33337 31.6666L16.6666 31.6666C17.1086 31.6666 17.5326 31.4911 17.8452 31.1785C18.1577 30.866 18.3334 30.442 18.3334 30L18.3334 21.6666L25 21.6666L25 30C25 30.442 25.1755 30.866 25.4882 31.1785C25.8007 31.4911 26.2246 31.6666 26.6666 31.6666L30 31.6666C30.442 31.6666 30.866 31.4911 31.1785 31.1785C31.4911 30.866 31.6666 30.442 31.6666 30L31.6666 14.2933C32.6967 13.0684 33.3334 11.4734 33.3334 9.71667L33.3334 5C33.3334 2.24329 31.09 0 28.3334 0ZM30 5L30 9.71838C30 11.6183 28.585 13.2383 26.8484 13.33L26.6666 13.3334C24.8284 13.3334 23.3334 11.8384 23.3334 10L23.3334 3.33337L28.3334 3.33337C29.2533 3.33337 30 4.08167 30 5ZM13.3334 10L13.3334 3.33337L20 3.33337L20 10C20 11.8384 18.505 13.3334 16.6666 13.3334C14.8284 13.3334 13.3334 11.8384 13.3334 10ZM3.33337 5C3.33337 4.08167 4.07996 3.33337 5 3.33337L10 3.33337L10 10C10 11.8384 8.505 13.3334 6.66663 13.3334L6.48499 13.3284C4.74829 13.2383 3.33337 11.6183 3.33337 9.71838L3.33337 5ZM13.3334 23.3334L6.66663 23.3334L6.66663 18.3334L13.3334 18.3334L13.3334 23.3334Z" fill="url(#paint_linear_45_3824_0)" fill-opacity="1.000000" fill-rule="nonzero"/>
</svg>
