<svg width="19.999512" height="20.002930" viewBox="0 0 19.9995 20.0029" fill="none" xmlns="http://www.w3.org/2000/svg" xmlns:xlink="http://www.w3.org/1999/xlink">
	<desc>
			Created with Pixso.
	</desc>
	<defs/>
	<path id="Vector" d="M11.951 0.719604L12.1333 0.889648L12.8521 1.6084C13.099 1.85413 13.4227 2.00562 13.7672 2.03967L13.916 2.047L14.944 2.047C16.5479 2.047 17.8593 3.30115 17.9509 4.88196L17.9559 5.05896L17.9559 6.08594C17.9559 6.43579 18.0765 6.77197 18.2942 7.03943L18.3933 7.14966L19.1121 7.86841C20.2437 8.99487 20.2942 10.7961 19.2576 11.9832L19.1223 12.1283L18.3939 12.8567C18.1489 13.1022 17.9974 13.4263 17.9633 13.7704L17.9559 13.9189L17.9559 14.948C17.9559 16.5516 16.7019 17.8623 15.121 17.9539L14.944 17.959L13.916 17.959C13.5674 17.959 13.2307 18.0801 12.9633 18.2982L12.8529 18.3977L12.1351 19.1145C11.0099 20.2473 9.20728 20.2976 8.01978 19.2606L7.8656 19.1163L7.14856 18.3992C6.90015 18.1526 6.57568 18.0005 6.23218 17.9663L6.08398 17.959L5.05493 17.959C3.4519 17.959 2.14075 16.7054 2.04907 15.1249L2.04395 14.948L2.04395 13.9189C2.04395 13.5709 1.92273 13.2339 1.70459 12.9669L1.60522 12.8569L0.888184 12.1388C-0.244385 11.0126 -0.294678 9.20996 0.74231 8.02356L0.877686 7.87866L1.60376 7.15149C1.85071 6.90283 2.00256 6.57898 2.03662 6.23462L2.04395 6.08594L2.04395 5.05896L2.04907 4.88208C2.13733 3.35986 3.35645 2.14026 4.87817 2.05212L5.05493 2.047L6.08398 2.047C6.4325 2.047 6.76929 1.92603 7.03625 1.70886L7.14624 1.60999L7.8645 0.890869C8.99084 -0.240601 10.7932 -0.290405 11.951 0.719604ZM9.04138 1.8457L8.92664 1.94995L8.20544 2.67212C7.68823 3.18579 7.00403 3.4928 6.28186 3.54041L6.08398 3.547L5.05493 3.547C4.26746 3.547 3.61975 4.15112 3.55017 4.92139L3.54395 5.05896L3.54395 6.08594C3.54395 6.81506 3.27942 7.51624 2.80212 8.06433L2.66663 8.20996L1.93945 8.93811C1.3877 9.49243 1.35559 10.368 1.84326 10.9622L1.94763 11.077L2.66699 11.7972C3.1814 12.3129 3.48962 12.9982 3.53748 13.7209L3.54395 13.9189L3.54395 14.948C3.54395 15.736 4.14771 16.3833 4.91748 16.4528L5.05493 16.459L6.08398 16.459C6.81177 16.459 7.51355 16.7239 8.06177 17.2012L8.20728 17.3367L8.93066 18.0599C9.48889 18.615 10.3647 18.6473 10.9583 18.1597L11.073 18.0553L11.7939 17.3353C12.3107 16.821 12.995 16.5132 13.718 16.4655L13.916 16.459L14.944 16.459C15.7327 16.459 16.3802 15.8555 16.4498 15.0854L16.4559 14.948L16.4559 13.9189C16.4559 13.1901 16.7208 12.4871 17.1974 11.9414L17.3326 11.7966L18.0602 11.0691C18.6119 10.5142 18.6439 9.63892 18.157 9.04517L18.0526 8.9303L17.3308 8.20837C16.8169 7.6908 16.51 7.00745 16.4625 6.28406L16.4559 6.08594L16.4559 5.05896C16.4559 4.27051 15.8519 3.62268 15.0815 3.5531L14.944 3.547L13.916 3.547C13.1868 3.547 12.4847 3.28259 11.9379 2.80554L11.7926 2.67029L11.1047 1.98047L11.0648 1.94348C10.5106 1.39172 9.63477 1.35938 9.04138 1.8457ZM13.0964 12.0455C13.1664 12.1156 13.2264 12.1956 13.2664 12.2855C13.2964 12.3756 13.3164 12.4756 13.3164 12.5756C13.3164 12.6765 13.2964 12.7655 13.2664 12.8556C13.2264 12.9456 13.1664 13.0355 13.0964 13.1056C12.9564 13.2456 12.7664 13.3256 12.5664 13.3256C12.3663 13.3256 12.1764 13.2456 12.0364 13.1056C11.9664 13.0355 11.9164 12.9456 11.8763 12.8556C11.8364 12.7655 11.8164 12.6765 11.8164 12.5756C11.8164 12.4756 11.8364 12.3756 11.8763 12.2855C11.9164 12.1956 11.9664 12.1156 12.0364 12.0455C12.3164 11.7655 12.8164 11.7655 13.0964 12.0455ZM13.1 6.90234C13.3663 7.16858 13.3905 7.58521 13.1726 7.87891L13.1 7.96301L7.95996 13.103C7.66711 13.3959 7.19226 13.3959 6.89929 13.103C6.63306 12.8367 6.60889 12.42 6.82678 12.1265L6.89929 12.0424L12.0393 6.90234C12.3323 6.60938 12.8071 6.60938 13.1 6.90234ZM7.9563 6.90601C8.09631 7.04492 8.17627 7.23596 8.17627 7.43591C8.17627 7.53601 8.16626 7.625 8.12634 7.71594C8.0863 7.80591 8.02625 7.88599 7.9563 7.96594C7.88623 8.03601 7.80627 8.08496 7.71631 8.125C7.62634 8.16492 7.52625 8.18591 7.42627 8.18591C7.32629 8.18591 7.23633 8.16492 7.14624 8.125C7.05627 8.08496 6.96631 8.03601 6.89624 7.96594C6.82629 7.88599 6.77625 7.80591 6.73633 7.71594C6.69629 7.625 6.67627 7.53601 6.67627 7.43591C6.67627 7.33496 6.69629 7.23596 6.73633 7.146C6.77625 7.05591 6.82629 6.96594 6.89624 6.90601C7.18628 6.625 7.67627 6.625 7.9563 6.90601Z" fill="#EA7C69" fill-opacity="1.000000" fill-rule="nonzero"/>
</svg>
