<svg width="20.000000" height="20.000000" viewBox="0 0 20 20" fill="none" xmlns="http://www.w3.org/2000/svg" xmlns:xlink="http://www.w3.org/1999/xlink">
	<desc>
			Created with Pixso.
	</desc>
	<defs/>
	<path id="Vector" d="M8.4978 4.76062C8.58545 4.93481 8.63818 5.1239 8.65332 5.32104L9.04187 10.8096C9.04712 10.8848 9.08264 10.9548 9.14087 11.0043C9.18445 11.0413 9.23804 11.0645 9.29797 11.0712L9.35986 11.0724L14.9341 10.7366C15.3867 10.71 15.8306 10.8676 16.1604 11.1719C16.4902 11.4763 16.6769 11.9004 16.6744 12.3911C16.4265 16.0037 13.7731 19.0237 10.1591 19.8065C6.54504 20.5892 2.83606 18.9474 1.05786 15.7848C0.582275 14.9695 0.261719 14.0778 0.11377 13.1749L0.0664062 12.8359C0.0252686 12.582 0.00317383 12.3257 0 12.0795L0.00317383 11.8372C0.0134277 8.06543 2.66162 4.80408 6.38806 3.92432L6.6438 3.86804L6.78137 3.84534C7.50195 3.74683 8.21094 4.12451 8.4978 4.76062ZM7.01648 5.27808L6.93213 5.28772L6.70374 5.33936C3.73523 6.05481 1.6062 8.61035 1.48792 11.621L1.48279 11.8661C1.47571 12.0525 1.48254 12.2391 1.505 12.4377L1.53271 12.6407C1.63208 13.495 1.90796 14.3206 2.34912 15.0773C3.81628 17.6863 6.8667 19.0367 9.83899 18.3928C12.8113 17.749 14.9937 15.2653 15.1958 12.3414C15.1958 12.2974 15.1774 12.2552 15.1447 12.225C15.1228 12.2048 15.0959 12.1912 15.0675 12.1851L15.0239 12.1818L9.45898 12.517C8.98938 12.5503 8.52551 12.3993 8.17004 12.0972C7.81458 11.795 7.5968 11.3668 7.56519 10.91L7.177 5.42615C7.17627 5.41711 7.17383 5.4082 7.15686 5.37305C7.13147 5.31689 7.07654 5.28125 7.01648 5.27808ZM11.423 0.00109863C15.7085 0.122314 19.3029 3.20166 19.9905 7.34082L20 7.45667L19.9978 7.65857C19.9736 7.95618 19.8538 8.23926 19.6544 8.4668C19.4042 8.75244 19.0477 8.92859 18.6588 8.95679L12.0133 9.39001C11.1615 9.43823 10.4294 8.80505 10.3741 7.97351L9.92981 1.4491L9.93494 1.30298L9.95703 1.13818C10.0162 0.846191 10.1685 0.579346 10.3925 0.376465C10.674 0.121582 11.0474 -0.0134277 11.423 0.00109863ZM11.4113 1.44897L11.8511 7.87817C11.8536 7.91724 11.8881 7.9469 11.9214 7.94507L18.5182 7.51355L18.4855 7.3335C17.8318 4.0802 15.012 1.66443 11.6288 1.45935L11.4113 1.44897Z" fill="#EA7C69" fill-opacity="1.000000" fill-rule="nonzero"/>
</svg>
