<svg width="20.000000" height="18.000000" viewBox="0 0 20 18" fill="none" xmlns="http://www.w3.org/2000/svg" xmlns:xlink="http://www.w3.org/1999/xlink">
	<desc>
			Created with Pixso.
	</desc>
	<defs/>
	<path id="Vector" d="M14.5253 0C16.0392 0.0170898 17.4802 0.657959 18.5126 1.77344C19.5449 2.88892 20.0786 4.38171 19.9906 5.85901L19.9893 12.0959C20.0786 13.6183 19.5449 15.1111 18.5126 16.2266C17.4802 17.342 16.0392 17.9829 14.5168 18L5.45618 18C2.28662 18 0 15.4385 0 12.141L0 5.85901C0 2.56152 2.28662 0 5.45618 0L14.5253 0ZM14.5084 1.52832L5.45618 1.52832C3.16284 1.52832 1.51746 3.37158 1.51746 5.85901L1.51746 12.141C1.51746 14.6284 3.16284 16.4717 5.45618 16.4717L14.5084 16.4717C15.6073 16.4592 16.6532 15.9941 17.4026 15.1843C18.152 14.3746 18.5393 13.2911 18.4731 12.141L18.4745 5.81384C18.5393 4.70886 18.152 3.62537 17.4026 2.81567C16.6532 2.00586 15.6073 1.54077 14.5084 1.52832ZM16.024 5.63843C16.2621 5.93787 16.24 6.36267 15.9882 6.6355L15.9058 6.71252L11.7988 10.0237C10.8014 10.8068 9.4231 10.8458 8.38306 10.1376L8.22168 10.0195L4.08728 6.71448C3.75903 6.45215 3.7041 5.97144 3.9646 5.64087C4.20142 5.34033 4.61731 5.26733 4.93762 5.45361L5.03052 5.51733L9.15979 8.81812C9.6228 9.18164 10.2574 9.20959 10.7408 8.90686L10.8583 8.82422L14.9575 5.51929C15.2847 5.25549 15.7622 5.30884 16.024 5.63843Z" fill="#EA7C69" fill-opacity="1.000000" fill-rule="nonzero"/>
</svg>
