<svg width="17.000000" height="20.000000" viewBox="0 0 17 20" fill="none" xmlns="http://www.w3.org/2000/svg" xmlns:xlink="http://www.w3.org/1999/xlink">
	<desc>
			Created with Pixso.
	</desc>
	<defs/>
	<path id="Vector" d="M11.1079 17.6907C11.4045 17.9321 11.4515 18.3713 11.2129 18.6716C11.0365 18.8936 10.8328 19.0923 10.6167 19.2551C9.88904 19.8259 8.96399 20.085 8.04529 19.9753C7.12573 19.866 6.28699 19.3962 5.7146 18.6689C5.47742 18.3677 5.52649 17.9287 5.82422 17.6885C6.12195 17.4485 6.55554 17.498 6.79272 17.7996C7.13794 18.238 7.64673 18.5229 8.20642 18.5896C8.76697 18.6565 9.33069 18.4985 9.78259 18.1443C9.91577 18.0437 10.0355 17.927 10.1389 17.7969C10.3776 17.4966 10.8114 17.449 11.1079 17.6907ZM1.6521 6.99976L1.66443 6.40381C1.67322 6.14917 1.68689 5.9126 1.70679 5.68091C2.00659 2.44458 5.0957 0 8.46484 0L8.53613 0C11.9034 0 14.9934 2.44287 15.3033 5.6853C15.3212 5.8916 15.3287 6.07446 15.3311 6.33203L15.332 7.11987C15.3328 7.19165 15.334 7.25464 15.3358 7.31348L15.345 7.50977L15.3896 7.69678C15.5303 8.21802 15.7776 8.70532 16.1162 9.12817L16.267 9.30542L16.3286 9.38477C16.7349 9.9917 16.9668 10.698 17 11.4587L16.999 11.8621C16.9707 12.7629 16.6399 13.6331 16.0338 14.3582C15.2311 15.21 14.1433 15.7393 12.9873 15.8457C10.002 16.1699 6.98999 16.1699 4.01294 15.8467C2.849 15.7346 1.7644 15.207 0.926636 14.3223C0.308838 13.5691 -0.0195312 12.6208 0.000854492 11.6624L0.00170898 11.4241C0.0374756 10.6956 0.268066 9.98975 0.669312 9.38013L0.736572 9.2937C1.2052 8.78003 1.52563 8.15112 1.66467 7.47314L1.64966 7.53394L1.6521 6.99976ZM8.53613 1.39526L8.46484 1.39526C5.76648 1.39526 3.30798 3.34082 3.07971 5.80688C3.06799 5.94238 3.05872 6.08203 3.05139 6.22925L3.03528 6.69556L3.02881 7.61475L3.0144 7.75659C2.82446 8.68311 2.38733 9.54102 1.74927 10.2405L1.79858 10.1833L1.71045 10.3291C1.54541 10.6265 1.43884 10.9495 1.39685 11.2683L1.37939 11.4587L1.37915 11.6775C1.36572 12.3142 1.58081 12.9355 1.95374 13.3931C2.52881 13.9985 3.30688 14.377 4.15173 14.4583C7.03931 14.772 9.95276 14.772 12.8513 14.4573C13.6871 14.3801 14.4646 14.002 15.0084 13.4268C15.4199 12.9331 15.6375 12.3096 15.6216 11.6536L15.6223 11.4902C15.6012 11.0186 15.451 10.5613 15.1874 10.1672L15.2026 10.1926L15.0647 10.0308C14.5894 9.44409 14.244 8.76343 14.0518 8.03394L13.9868 7.7583L13.9739 7.66553C13.9642 7.53003 13.9585 7.40991 13.9556 7.26514L13.9528 6.3606C13.9509 6.13037 13.9447 5.97559 13.9308 5.81323C13.6943 3.34082 11.2336 1.39526 8.53613 1.39526Z" fill="#EA7C69" fill-opacity="1.000000" fill-rule="nonzero"/>
</svg>
