<svg width="19.000000" height="20.000000" viewBox="0 0 19 20" fill="none" xmlns="http://www.w3.org/2000/svg" xmlns:xlink="http://www.w3.org/1999/xlink">
	<desc>
			Created with Pixso.
	</desc>
	<defs/>
	<path id="Vector" d="M10.1161 0C10.8251 -0.000244141 11.504 0.280518 11.9983 0.778809C12.4924 1.27686 12.7599 1.94971 12.7384 2.57764L12.7468 2.72534C12.764 2.87085 12.8124 3.01123 12.8907 3.14062C13.0435 3.39575 13.2935 3.58081 13.5857 3.65503C13.8778 3.72949 14.1882 3.68677 14.4822 3.51831L14.646 3.43555C15.876 2.8689 17.3511 3.31909 18.0333 4.47925L18.6465 5.52173C18.6627 5.54932 18.6769 5.57764 18.6892 5.60669L18.7461 5.71851C19.2946 6.86523 18.9043 8.22925 17.8624 8.92236L17.6051 9.08057C17.4706 9.17261 17.3585 9.29248 17.2742 9.43677C17.1218 9.69287 17.0801 9.99805 17.158 10.2844C17.236 10.5708 17.4272 10.8149 17.7174 10.9792L17.8844 11.084C18.3887 11.4297 18.7529 11.9392 18.9119 12.5229C19.0912 13.1816 18.995 13.8833 18.6399 14.4805L17.9802 15.5571L17.8809 15.709C17.1058 16.8008 15.6011 17.1343 14.4528 16.4849L14.3167 16.4163C14.1747 16.354 14.0215 16.3198 13.882 16.3162C13.5786 16.3147 13.2872 16.4321 13.0728 16.6423C12.8582 16.8523 12.7383 17.1379 12.7391 17.4697L12.731 17.6414C12.62 18.9702 11.4845 20 10.1165 20L8.8811 20C7.43225 20 6.25769 18.8494 6.25916 17.4753L6.25061 17.3276C6.2334 17.1821 6.18506 17.0417 6.10266 16.9058C5.95337 16.6499 5.70593 16.4631 5.41541 16.387C5.12488 16.3108 4.81531 16.3516 4.51562 16.5212L4.33765 16.6084C3.77466 16.8564 3.13953 16.9023 2.54443 16.7366C1.87305 16.5496 1.30542 16.1084 0.974121 15.5225L0.336792 14.4441L0.251953 14.2844C-0.328369 13.0842 0.126465 11.6411 1.28113 10.9875L1.38647 10.9229C1.69495 10.7136 1.87988 10.3689 1.87988 10C1.87988 9.59888 1.6615 9.22827 1.27954 9.01147L1.12451 8.91406C0.0100098 8.15479 -0.330566 6.68042 0.359863 5.50684L1.00916 4.46167C1.73132 3.23364 3.33154 2.81006 4.56238 3.50171L4.69556 3.57129C4.83142 3.63232 4.979 3.66479 5.12097 3.66626C5.74744 3.66626 6.25781 3.17358 6.26721 2.54175L6.27576 2.3479C6.32703 1.74707 6.59302 1.18262 7.02795 0.754639C7.51855 0.271484 8.18555 0 8.8811 0L10.1161 0ZM10.1165 1.44775L8.8811 1.44775C8.57861 1.44775 8.2887 1.56592 8.07532 1.77588C7.88623 1.96191 7.77063 2.20752 7.75024 2.43652L7.73682 2.74146C7.63342 4.0708 6.49963 5.11426 5.11328 5.11401C4.75586 5.11035 4.40356 5.03296 4.04431 4.87036L3.85193 4.77075C3.30383 4.46313 2.60486 4.64819 2.28052 5.19922L1.63123 6.24463C1.33374 6.75049 1.48254 7.39478 1.94324 7.70923L2.20398 7.87109C2.922 8.34668 3.35754 9.14307 3.35754 10C3.35754 10.8445 2.93408 11.634 2.20215 12.1296L2.04639 12.2256C1.53357 12.5164 1.33557 13.144 1.57397 13.6384L1.63025 13.7449L2.25952 14.8083C2.40723 15.0696 2.65515 15.2625 2.94836 15.344C3.20825 15.4165 3.48572 15.3965 3.70203 15.3018L3.81079 15.2498C4.41101 14.9065 5.1261 14.8125 5.79736 14.9885C6.46863 15.1646 7.04028 15.5959 7.37939 16.1768C7.56177 16.478 7.67725 16.8132 7.72192 17.1985L7.74207 17.552C7.8042 18.1145 8.29053 18.5522 8.8811 18.5522L10.1165 18.5522C10.7137 18.5522 11.2098 18.1023 11.2565 17.551L11.2621 17.4421C11.2588 16.7585 11.5344 16.1018 12.0278 15.6184C12.5212 15.135 13.1914 14.865 13.9053 14.8687C14.2556 14.8777 14.6003 14.9546 14.9528 15.1101L15.2688 15.2681C15.7646 15.4814 16.3529 15.3259 16.6511 14.9067L16.7236 14.7957L17.3679 13.7437C17.5203 13.4875 17.562 13.1824 17.4841 12.896C17.415 12.6421 17.2566 12.4207 17.0646 12.2881L16.7922 12.1196C16.2716 11.7747 15.8932 11.2563 15.7302 10.6575C15.5509 9.99878 15.6471 9.29712 15.9946 8.71265C16.1849 8.38721 16.4464 8.10742 16.7874 7.87524L16.948 7.77612C17.4601 7.48267 17.6578 6.85498 17.4211 6.35889L17.3505 6.22534L17.3378 6.19727L16.7531 5.20215C16.4764 4.73169 15.9009 4.52856 15.4125 4.68921L15.3015 4.73267L15.1984 4.78418C14.6001 5.12939 13.8864 5.22729 13.2144 5.0564C12.5424 4.8855 11.9673 4.45972 11.618 3.87622C11.4357 3.57495 11.3202 3.23975 11.2755 2.85449L11.2625 2.60254C11.2714 2.29932 11.1545 2.00537 10.9387 1.78784C10.7229 1.57031 10.4264 1.44775 10.1165 1.44775ZM9.5033 6.73193C11.3456 6.73193 12.839 8.19507 12.839 10C12.839 11.8049 11.3456 13.2681 9.5033 13.2681C7.66101 13.2681 6.16748 11.8049 6.16748 10C6.16748 8.19507 7.66101 6.73193 9.5033 6.73193ZM9.5033 8.17944C8.47705 8.17944 7.64514 8.99463 7.64514 10C7.64514 11.0054 8.47705 11.8206 9.5033 11.8206C10.5294 11.8206 11.3613 11.0054 11.3613 10C11.3613 8.99463 10.5294 8.17944 9.5033 8.17944Z" fill="#EA7C69" fill-opacity="1.000000" fill-rule="nonzero"/>
</svg>
