<svg width="20.537476" height="20.000000" viewBox="0 0 20.5375 20" fill="none" xmlns="http://www.w3.org/2000/svg" xmlns:xlink="http://www.w3.org/1999/xlink">
	<desc>
			Created with Pixso.
	</desc>
	<defs/>
	<path id="Vector" d="M9.30896 0C11.6882 0 13.6301 1.87402 13.7391 4.22632L13.744 4.43506L13.744 5.36792C13.744 5.78223 13.4082 6.11792 12.994 6.11792C12.6143 6.11792 12.3005 5.83594 12.2509 5.46973L12.244 5.36792L12.244 4.43506C12.244 2.87207 11.022 1.59424 9.48145 1.50488L9.30896 1.5L4.43396 1.5C2.87195 1.5 1.59424 2.72217 1.505 4.2627L1.5 4.43506L1.5 15.5649C1.5 17.1277 2.72192 18.4058 4.2616 18.4951L4.43396 18.5L9.31897 18.5C10.8763 18.5 12.15 17.2825 12.239 15.7478L12.244 15.5759L12.244 14.6331C12.244 14.2188 12.5798 13.8831 12.994 13.8831C13.3737 13.8831 13.6875 14.165 13.7372 14.5312L13.744 14.6331L13.744 15.5759C13.744 17.9473 11.8772 19.8831 9.53333 19.9949L9.31897 20L4.43396 20C2.05554 20 0.113892 18.126 0.00488281 15.7737L0 15.5649L0 4.43506C0 2.05591 1.87378 0.11377 4.22534 0.00488281L4.43396 0L9.30896 0ZM17.3041 6.48096L17.3883 6.55322L20.3164 9.46826C20.3428 9.49438 20.3658 9.521 20.3871 9.54932L20.3164 9.46826C20.3469 9.49878 20.3743 9.53101 20.3984 9.56494C20.4155 9.58887 20.4314 9.61401 20.4457 9.63989C20.4482 9.64502 20.4509 9.6499 20.4535 9.65503C20.4661 9.67896 20.4773 9.70386 20.4872 9.72925C20.4912 9.74048 20.4954 9.75195 20.4991 9.76318C20.5063 9.78418 20.5126 9.80591 20.5177 9.82788C20.5201 9.8396 20.5226 9.85132 20.5247 9.86304C20.5288 9.88354 20.5319 9.90454 20.5339 9.92603C20.535 9.94092 20.536 9.95557 20.5366 9.97021C20.5374 9.98022 20.5375 9.98999 20.5375 10L20.5366 10.0283C20.5361 10.0437 20.535 10.0591 20.5336 10.0742L20.5375 10C20.5375 10.0466 20.5332 10.0925 20.525 10.137C20.5226 10.1482 20.5201 10.1599 20.5173 10.1716C20.5123 10.1948 20.5059 10.2173 20.4985 10.2393C20.4948 10.2495 20.491 10.2598 20.4871 10.27C20.4778 10.2949 20.4669 10.3191 20.455 10.3423C20.4519 10.3477 20.4487 10.3535 20.4456 10.3594C20.4111 10.4229 20.368 10.48 20.3179 10.5303L20.3164 10.5312L17.3884 13.4473C17.095 13.7395 16.6201 13.7385 16.3278 13.4451C16.062 13.1782 16.0387 12.7615 16.2572 12.4683L16.33 12.3843L17.969 10.749L7.74646 10.75C7.33228 10.75 6.99646 10.4141 6.99646 10C6.99646 9.62012 7.27869 9.3064 7.64478 9.25684L7.74646 9.25L17.9709 9.24902L16.3301 7.61621C16.0632 7.35059 16.0381 6.93408 16.2552 6.63989L16.3276 6.55566C16.5934 6.28882 17.01 6.26367 17.3041 6.48096Z" fill="#EA7C69" fill-opacity="1.000000" fill-rule="nonzero"/>
</svg>
